<svg width="76" height="80" viewBox="0 0 76 80" fill="none" xmlns="http://www.w3.org/2000/svg">
<path d="M40.0384 28.8867V25.585H35.4846V26.534H39.0568V27.1757H35.4846V28.1247H39.0568V28.8867H34.3394V29.8357H41.1837V28.8867H40.0384Z" fill="white"/>
<path d="M36.507 30.2634H35.5254V32.7096H40.1746V31.7606H36.507V30.2634Z" fill="white"/>
<path d="M45.751 27.9242C45.751 27.59 45.642 27.2825 45.4784 27.0152H46.1873V26.0661H44.5785V25.3042H43.5969V26.0661H41.988V27.0152H42.6834C42.5061 27.2825 42.4107 27.59 42.4107 27.9242C42.4107 28.8331 43.1742 29.5683 44.1013 29.5683C45.0284 29.5683 45.7783 28.8331 45.7783 27.9242M43.3787 27.9242C43.3787 27.5365 43.7059 27.2157 44.1013 27.2157C44.4967 27.2157 44.8239 27.5365 44.8239 27.9242C44.8239 28.3118 44.4967 28.6326 44.1013 28.6326C43.7059 28.6326 43.3787 28.3118 43.3787 27.9242Z" fill="white"/>
<path d="M43.2288 31.0387H46.8963V32.8299H47.878V30.0896H43.2288V31.0387Z" fill="white"/>
<path d="M47.8506 27.229V25.3977H46.8689V29.595H47.8506V28.0444H49.0776V27.229H47.8506Z" fill="white"/>
<path d="M19.1099 26.6542H21.3459V27.5231L18.96 29.849L19.6417 30.5173L22.3276 27.8974V25.7185H19.1099V26.6542Z" fill="white"/>
<path d="M54.2313 29.6887H55.1994V25.9592H50.3184V26.9083H54.2313V29.6887Z" fill="white"/>
<path d="M53.6042 30.5976V28.2183H52.6225V30.5976H52.009V28.2183H51.0273V30.5976H49.5276V31.5467H55.9356V30.5976H53.6042Z" fill="white"/>
<path d="M32.4441 25.3977H31.4761V29.3811H32.4441V27.8038H33.6848V26.9884H32.4441V25.3977Z" fill="white"/>
<path d="M30.6852 29.6619C29.7036 29.6619 28.8992 30.4372 28.8992 31.413C28.8992 32.3888 29.6899 33.1507 30.6852 33.1507C31.6805 33.1507 32.4577 32.3754 32.4577 31.413C32.4577 30.4505 31.6669 29.6619 30.6852 29.6619ZM30.6852 32.215C30.2217 32.215 29.8536 31.8541 29.8536 31.3996C29.8536 30.9451 30.2217 30.5842 30.6852 30.5842C31.1488 30.5842 31.5169 30.9451 31.5169 31.3996C31.5169 31.8541 31.1488 32.215 30.6852 32.215Z" fill="white"/>
<path d="M30.7262 28.5659L29.1583 27.296V26.534H30.5626V25.585H26.7996V26.534H28.1903V27.296L26.636 28.5659L27.2495 29.2877L28.6811 28.1247L30.1127 29.2877L30.7262 28.5659Z" fill="white"/>
<path d="M24.4546 25.4111H23.4729V32.3487H24.4546V28.2851H25.6953V27.336H24.4546V25.4111Z" fill="white"/>
<path d="M42.5878 17.0298H41.9879C41.7698 16.2812 41.0745 15.7198 40.2428 15.7198C39.2475 15.7198 38.4294 16.5218 38.4294 17.4976C38.4294 18.4735 39.2475 19.2755 40.2428 19.2755C41.0745 19.2755 41.7698 18.7274 41.9879 17.9789H42.6015V22.2296H43.5831V15.3054H42.6015V17.0432L42.5878 17.0298ZM40.2291 18.3398C39.752 18.3398 39.3702 17.9655 39.3702 17.4976C39.3702 17.0298 39.752 16.6555 40.2291 16.6555C40.7063 16.6555 41.0881 17.0298 41.0881 17.4976C41.0881 17.9655 40.7063 18.3398 40.2291 18.3398Z" fill="white"/>
<path d="M45.083 15.2788H44.115V22.203H45.083V15.2788Z" fill="white"/>
<path d="M51.1639 17.0032H49.6914V17.9523H51.1639V22.2164H52.1455V15.2788H51.1639V17.0032Z" fill="white"/>
<path d="M29.3764 15.2788H28.3948V22.203H29.3764V15.2788Z" fill="white"/>
<path d="M26.8677 17.0032H25.8997V17.9523H26.8677V22.2164H27.8357V15.2788H26.8677V17.0032Z" fill="white"/>
<path d="M24.7544 15.4927H23.7727V17.7785L22.1912 19.3291L22.8729 19.9974L24.2635 18.634L25.6679 19.9974L26.3496 19.3291L24.7544 17.7785V15.4927Z" fill="white"/>
<path d="M48.5732 15.4927H47.5916V17.7785L46.01 19.3291L46.6917 19.9974L48.0824 18.634L49.4867 19.9974L50.1684 19.3291L48.5732 17.7785V15.4927Z" fill="white"/>
<path d="M34.612 19.5562C33.6167 19.5562 32.8123 20.3448 32.8123 21.3206C32.8123 22.2964 33.6167 23.0717 34.612 23.0717C35.6072 23.0717 36.4117 22.2831 36.4117 21.3206C36.4117 20.3582 35.6072 19.5562 34.612 19.5562ZM34.612 22.136C34.1484 22.136 33.7666 21.7617 33.7666 21.3073C33.7666 20.8528 34.1484 20.4785 34.612 20.4785C35.0755 20.4785 35.4573 20.8528 35.4573 21.3073C35.4573 21.7617 35.0755 22.136 34.612 22.136Z" fill="white"/>
<path d="M36.3982 15.2788H35.4165V19.2756H36.3982V17.6849H37.6389V16.8695H36.3982V15.2788Z" fill="white"/>
<path d="M34.6664 18.5537L33.0712 16.9764V15.4258H32.0896V16.9764L30.4944 18.5537L31.1761 19.2221L32.5804 17.8319L33.9847 19.2221L34.6664 18.5537Z" fill="white"/>
<path d="M35.0891 45.5557H39.7929L39.8201 45.5156C43.4332 41.1712 50.073 40.8237 52.0227 40.8237H58.0489V36.9873H52.2817C45.2193 36.9873 40.9381 39.2597 38.5931 41.198C35.8663 43.4437 35.0891 45.5557 35.0891 45.5557Z" fill="white"/>
<path d="M36.2889 41.198C33.9438 39.2731 29.6627 36.9873 22.6002 36.9873H16.833V40.8237H22.8593C24.6181 40.8237 30.249 41.1044 33.9711 44.3927C34.3392 43.6843 35.0754 42.5347 36.357 41.2381C36.3298 41.2247 36.3161 41.198 36.2889 41.1846" fill="white"/>
<path d="M37.4479 0L15.647 10.6671L17.6103 14.0222L41.8654 2.16549L37.4479 0Z" fill="white"/>
<path d="M43.5288 2.98096L39.1113 5.13308L57.2856 14.0223L59.2353 10.6671L43.5288 2.98096Z" fill="white"/>
<path d="M26.8513 76.7627C26.8513 77.5544 27.1605 78.2946 27.7144 78.8481C28.2747 79.408 29.0154 79.717 29.8076 79.717H36.4028V77.1682H29.9493C29.8076 77.1682 29.6723 77.1103 29.5757 77.0137C29.4791 76.9172 29.4211 76.782 29.4211 76.6404V74.4328H36.1581V72.0127H29.4211V69.5605H36.4028V67.0503H26.8513V76.7627Z" fill="white"/>
<path d="M60.0722 67.0503L56.8326 72.0771L53.7346 67.0503H50.5916L55.538 74.4971V79.717H58.1207V74.5036L63.2604 67.0503H60.0722Z" fill="white"/>
<path d="M69.3982 66.7991C65.7528 66.7991 62.79 69.7598 62.79 73.3963C62.79 77.0328 65.7528 80 69.3982 80C73.0436 80 75.9999 77.0393 75.9999 73.3963C75.9999 69.7533 73.0372 66.7991 69.3982 66.7991ZM69.3982 77.4255C67.1761 77.4255 65.3728 75.6233 65.3728 73.4027C65.3728 71.1822 67.1761 69.38 69.3982 69.38C71.6202 69.38 73.4236 71.1822 73.4236 73.4027C73.4236 75.6233 71.6138 77.4255 69.3982 77.4255Z" fill="white"/>
<path d="M5.00441 67.0503H0V76.737C0 78.404 1.32678 79.717 2.98847 79.717H5.00441C9.54508 79.717 11.342 76.4087 11.342 73.2742C11.342 70.4036 9.60305 67.0503 5.00441 67.0503ZM2.56339 69.509H5.00441C7.70949 69.509 8.72712 71.4463 8.77864 73.2614C8.81084 74.4392 8.44373 75.4819 7.74813 76.1963C7.08474 76.8786 6.15729 77.2261 5.00441 77.2261H3.09152C2.94983 77.2261 2.81458 77.1682 2.71797 77.0717C2.62135 76.9687 2.56339 76.84 2.56339 76.6984V69.509Z" fill="white"/>
<path d="M44.9172 73.345C44.782 73.1906 44.8914 73.0554 44.9236 73.0168L50.4691 67.0503H47.1586L42.9592 71.7166C42.4182 72.3152 42.3667 73.0103 42.3667 73.2034V73.2871C42.3667 73.4866 42.4247 74.1946 42.9721 74.7739L47.6416 79.7106H51.0101L44.9172 73.3386V73.345Z" fill="white"/>
<path d="M41.9416 67.0503H39.3589V79.717H41.9416V67.0503Z" fill="white"/>
<path d="M20.3138 60.5495C20.3138 61.4634 19.5731 62.2101 18.6521 62.2101C17.7311 62.2101 16.9968 61.4699 16.9968 60.5495C16.9968 59.6291 17.7375 58.8889 18.6521 58.8889C19.5667 58.8889 20.3138 59.6291 20.3138 60.5495Z" fill="white"/>
<path d="M18.6587 65.8337C18.182 65.8337 17.699 65.7436 17.2675 65.5634L10.801 62.8795L11.2068 61.9011C11.4902 61.2189 12.3146 60.8713 13.0102 61.161L18.2529 63.5682C18.3753 63.6196 18.5105 63.6454 18.6522 63.6454C18.7939 63.6454 18.9356 63.6196 19.0515 63.5682L24.2942 61.161C24.9898 60.8713 25.8142 61.2253 26.0976 61.9011L26.5034 62.8795L20.037 65.5634C19.6054 65.7436 19.1224 65.8337 18.6458 65.8337H18.6587Z" fill="white"/>
<path d="M18.6457 67.0503C17.8664 67.0503 17.1579 67.488 16.8101 68.1831L11.7542 79.717H15.0196L18.5555 70.1462C18.5555 70.1462 18.5877 70.0754 18.6521 70.0754C18.7165 70.0754 18.7487 70.1462 18.7487 70.1462L22.2847 79.717H25.5501L20.4941 68.1831C20.1464 67.488 19.4379 67.0503 18.6586 67.0503H18.6392H18.6457Z" fill="white"/>
</svg>
