<svg width="120" height="44" viewBox="0 0 120 44" fill="none" xmlns="http://www.w3.org/2000/svg">
<path d="M21.9876 27.8993V24.7117H17.8835V25.626H21.1107V26.2397H17.8835V27.154H21.1107V27.8993H16.8516V28.8136H23.0315V27.8993H21.9876Z" fill="#221714"/>
<path d="M18.8081 29.2207H17.9253V31.5879H22.1188V30.6736H18.8081V29.2207Z" fill="#221714"/>
<path d="M27.1474 26.9598C27.1474 26.6342 27.052 26.3398 26.8969 26.0831H27.5292V25.1687H26.0737V24.436H25.1908V25.1687H23.7354V26.0831H24.3677C24.2126 26.3398 24.1171 26.6404 24.1171 26.9598C24.1171 27.8365 24.8031 28.5505 25.6382 28.5505C26.4734 28.5505 27.1534 27.8365 27.1534 26.9598M24.988 26.9598C24.988 26.5841 25.2803 26.2772 25.6382 26.2772C25.9961 26.2772 26.2884 26.5841 26.2884 26.9598C26.2884 27.3355 25.9961 27.6424 25.6382 27.6424C25.2803 27.6424 24.988 27.3355 24.988 26.9598Z" fill="#221714"/>
<path d="M24.8745 29.9783H28.1792V31.7067H29.062V29.064H24.8745V29.9783Z" fill="#221714"/>
<path d="M29.0382 26.296V24.53H28.1494V28.5756H29.0382V27.0789H30.1477V26.296H29.0382Z" fill="#221714"/>
<path d="M3.11962 25.7449H5.12987V26.5778L2.98242 28.8197L3.59683 29.4648L6.01272 26.941V24.8306H3.11962V25.7449Z" fill="#221714"/>
<path d="M34.789 28.6758H35.6658V25.0686H31.2695V25.9829H34.789V28.6758Z" fill="#221714"/>
<path d="M34.2223 29.5462V27.2542H33.3394V29.5462H32.7906V27.2542H31.9078V29.5462H30.5537V30.4605H36.328V29.5462H34.2223Z" fill="#221714"/>
<path d="M15.1455 24.53H14.2627V28.3752H15.1455V26.8534H16.267V26.0643H15.1455V24.53Z" fill="#221714"/>
<path d="M13.5587 28.6506C12.6699 28.6506 11.9541 29.4021 11.9541 30.3352C11.9541 31.2683 12.6699 32.0136 13.5587 32.0136C14.4475 32.0136 15.1574 31.2621 15.1574 30.3352C15.1574 29.4084 14.4416 28.6506 13.5587 28.6506ZM13.5587 31.118C13.1412 31.118 12.8071 30.7673 12.8071 30.3352C12.8071 29.9031 13.1412 29.5462 13.5587 29.5462C13.9763 29.5462 14.3044 29.9031 14.3044 30.3352C14.3044 30.7673 13.9703 31.118 13.5587 31.118Z" fill="#221714"/>
<path d="M13.5888 27.5798L12.187 26.3586V25.6259H13.4397V24.7053H10.0574V25.6259H11.3101V26.3586L9.90234 27.5798L10.4571 28.2812L11.7456 27.1665L13.034 28.2812L13.5888 27.5798Z" fill="#221714"/>
<path d="M7.93362 24.5364H7.05078V31.2309H7.93362V27.3169H9.05507V26.4026H7.93362V24.5364Z" fill="#221714"/>
<path d="M24.2903 16.4388H23.7474C23.5566 15.7124 22.9243 15.1738 22.1667 15.1738C21.2659 15.1738 20.5322 15.9441 20.5322 16.8897C20.5322 17.8354 21.2659 18.6056 22.1667 18.6056C22.9183 18.6056 23.5446 18.0733 23.7415 17.3532H24.2903V21.4551H25.1731V14.7605H24.2903V16.4388ZM22.1667 17.7039C21.7432 17.7039 21.3912 17.3406 21.3912 16.8897C21.3912 16.4388 21.7372 16.0756 22.1667 16.0756C22.5962 16.0756 22.9481 16.4388 22.9481 16.8897C22.9481 17.3406 22.5962 17.7039 22.1667 17.7039Z" fill="#221714"/>
<path d="M26.5508 14.7605H25.668V21.4551H26.5508V14.7605Z" fill="#221714"/>
<path d="M32.027 16.42H30.6968V17.3344H32.027V21.4551H32.9098V14.7605H32.027V16.42Z" fill="#221714"/>
<path d="M12.3775 14.7605H11.4946V21.4551H12.3775V14.7605Z" fill="#221714"/>
<path d="M10.1167 16.42H9.23389V17.3344H10.1167V21.4551H10.9936V14.7605H10.1167V16.42Z" fill="#221714"/>
<path d="M8.21427 14.9609H7.33143V17.1653L5.90576 18.6683L6.52017 19.3133L7.77285 17.9982L9.0315 19.3133L9.64591 18.6683L8.21427 17.1653V14.9609Z" fill="#221714"/>
<path d="M29.6944 14.9609H28.8115V17.1653L27.3799 18.6683L27.9943 19.3133L29.2529 17.9982L30.5116 19.3133L31.126 18.6683L29.6944 17.1653V14.9609Z" fill="#221714"/>
<path d="M17.1019 18.8813C16.2071 18.8813 15.4854 19.6391 15.4854 20.5785C15.4854 21.5178 16.2131 22.2756 17.1019 22.2756C17.9907 22.2756 18.7185 21.5116 18.7185 20.5785C18.7185 19.6454 17.9907 18.8813 17.1019 18.8813ZM17.1019 21.3801C16.6784 21.3801 16.3384 21.0231 16.3384 20.5847C16.3384 20.1464 16.6784 19.7831 17.1019 19.7831C17.5254 19.7831 17.8654 20.1401 17.8654 20.5847C17.8654 21.0294 17.5254 21.3801 17.1019 21.3801Z" fill="#221714"/>
<path d="M18.7066 14.7605H17.8237V18.6119H18.7066V17.0713H19.828V16.2948H18.7066V14.7605Z" fill="#221714"/>
<path d="M17.1497 17.9106L15.7062 16.3951V14.8921H14.8233V16.3951L13.3857 17.9106L14.0002 18.5619L15.2707 17.228L16.5353 18.5619L17.1497 17.9106Z" fill="#221714"/>
<path d="M21.7785 44H17.5313L17.5015 43.9624C14.2385 39.7666 8.24952 39.4347 6.48981 39.4347H1.06152V35.7273H6.2691C12.6339 35.7273 16.5053 37.9254 18.6169 39.7854C21.0746 41.9522 21.7785 43.9937 21.7785 43.9937" fill="#45B97C"/>
<path d="M17.5317 44H21.7789L21.8087 43.9624C25.0717 39.7666 31.0607 39.4347 32.8204 39.4347H38.2487V35.7273H33.0411C26.6763 35.7273 22.8049 37.9254 20.6933 39.7854C18.2356 41.9522 17.5317 43.9937 17.5317 43.9937" fill="#0099D7"/>
<path d="M19.655 0L15.6763 2.0854L37.5445 13.5457L39.3102 10.2955L19.655 0Z" fill="#FDB913"/>
<path d="M19.6552 0L0 10.2955L1.76568 13.5457L23.6339 2.0854L19.6552 0Z" fill="#F37321"/>
<path d="M75.1772 29.1187C75.1772 29.8892 75.4592 30.6095 75.9643 31.1482C76.4753 31.6931 77.1508 31.9938 77.8733 31.9938H83.888V29.5133H78.0025C77.8733 29.5133 77.75 29.457 77.6618 29.363C77.5737 29.269 77.5209 29.1375 77.5209 28.9997V26.8512H83.6648V24.4961H77.5209V22.1096H83.888V19.6667H75.1772V29.1187Z" fill="#657F86"/>
<path d="M105.474 19.6667L102.52 24.5587L99.6945 19.6667H96.8281L101.339 26.9139V31.9938H103.695V26.9201L108.382 19.6667H105.474Z" fill="#657F86"/>
<path d="M113.979 19.4224C110.655 19.4224 107.953 22.3037 107.953 25.849C107.953 29.3942 110.655 32.2755 113.979 32.2755C117.304 32.2755 120 29.3942 120 25.849C120 22.3037 117.298 19.4224 113.979 19.4224ZM113.979 29.7638C111.953 29.7638 110.308 28.0099 110.308 25.849C110.308 23.688 111.953 21.9341 113.979 21.9341C116.006 21.9341 117.65 23.688 117.65 25.849C117.65 28.0099 116 29.7638 113.979 29.7638Z" fill="#657F86"/>
<path d="M55.2534 19.6667H50.6895V29.0937C50.6895 30.716 51.9053 31.9938 53.4149 31.9938H55.2534C59.3944 31.9938 61.0332 28.7742 61.0332 25.7238C61.0332 22.9302 59.4472 19.6667 55.2534 19.6667ZM53.0272 22.0595H55.2534C57.7204 22.0595 58.6484 23.9449 58.6954 25.7112C58.7248 26.8575 58.39 27.8722 57.7556 28.5675C57.1506 29.2315 56.3048 29.5697 55.2534 29.5697H53.5089C53.3796 29.5697 53.2563 29.5196 53.1682 29.4194C53.0801 29.3192 53.0272 29.1939 53.0272 29.0561V22.0595Z" fill="#657F86"/>
<path d="M91.6532 25.7927C91.5298 25.6423 91.6297 25.5108 91.659 25.4732L96.7163 19.6667H93.6972L89.8675 24.208C89.3741 24.7905 89.3271 25.467 89.3271 25.6549V25.7363C89.3271 25.9305 89.38 26.6195 89.8793 27.1832L94.1378 31.9875H97.2097L91.6532 25.7864V25.7927Z" fill="#657F86"/>
<path d="M88.9394 19.6667H86.584V31.9938H88.9394V19.6667Z" fill="#657F86"/>
<path d="M69.2148 13.3401C69.2148 14.2293 68.5395 14.9558 67.6997 14.9558C66.8599 14.9558 66.1904 14.2356 66.1904 13.3401C66.1904 12.4445 66.8658 11.7244 67.6997 11.7244C68.5336 11.7244 69.2148 12.4445 69.2148 13.3401Z" fill="#ED1C23"/>
<path d="M67.706 18.4828C67.2714 18.4828 66.8308 18.3951 66.4373 18.2197L60.5459 15.6077L60.9159 14.6556C61.1744 13.9917 61.9262 13.6534 62.5606 13.9353L67.3418 16.2779C67.4534 16.3281 67.5768 16.3531 67.706 16.3531C67.8352 16.3531 67.9645 16.3281 68.0702 16.2779L72.8514 13.9353C73.4858 13.6534 74.2376 13.9979 74.4961 14.6556L74.8661 15.6077L68.9747 18.2197C68.5812 18.3951 68.1407 18.4828 67.706 18.4828Z" fill="#ED1C23"/>
<path d="M67.6941 19.6604C66.9834 19.6604 66.3373 20.0863 66.0201 20.7628L61.4092 31.9874H64.3872L67.6119 22.6733C67.6119 22.6733 67.6412 22.6044 67.7 22.6044C67.7587 22.6044 67.7881 22.6733 67.7881 22.6733L71.0128 31.9874H73.9908L69.3799 20.7628C69.0627 20.0863 68.4166 19.6604 67.7059 19.6604H67.6882H67.6941Z" fill="#657F86"/>
</svg>
