<svg width="143" height="44" viewBox="0 0 143 44" fill="none" xmlns="http://www.w3.org/2000/svg">
<path d="M138.657 25.7764H139.972V29.5777H143V30.7675H134.598V29.5777H136.228V25.7764H137.543V29.5777H138.657V25.7764Z" fill="#8A98A3"/>
<path d="M141.086 28.1999H142.461V22.4197H135.273V23.6095H141.086V28.1999Z" fill="#8A98A3"/>
<path d="M132.103 22.3008V25.1439H131.191V22.3008H129.87V31.3438H131.191V26.3964H132.103V31.3438H133.419V22.3008H132.103Z" fill="#8A98A3"/>
<path d="M128.957 28.2563H126.581C126.415 28.2563 126.279 28.1123 126.279 27.9432V23.6597H128.957V22.4761H124.904V28.2939C124.904 28.9264 125.396 29.4462 125.995 29.4462H128.957V28.2563Z" fill="#8A98A3"/>
<path d="M74.8311 28.4691C74.8311 29.2394 75.1155 29.9595 75.625 30.4981C76.1405 31.0429 76.8219 31.3435 77.5507 31.3435H83.6181V28.8636H77.6811C77.5507 28.8636 77.4263 28.8073 77.3374 28.7133C77.2485 28.6194 77.1952 28.4879 77.1952 28.3501V26.2021H83.3929V23.8474H77.1952V21.4614H83.6181V19.019H74.8311V28.4691Z" fill="#8A98A3"/>
<path d="M105.393 19.019L102.412 23.91L99.5624 19.019H96.6709L101.221 26.2647V31.3435H103.597V26.271L108.326 19.019H105.393Z" fill="#8A98A3"/>
<path d="M113.972 18.7749C110.619 18.7749 107.893 21.6556 107.893 25.2002C107.893 28.7447 110.619 31.6255 113.972 31.6255C117.326 31.6255 120.046 28.7447 120.046 25.2002C120.046 21.6556 117.32 18.7749 113.972 18.7749ZM113.972 29.1142C111.928 29.1142 110.269 27.3607 110.269 25.2002C110.269 23.0396 111.928 21.2861 113.972 21.2861C116.016 21.2861 117.675 23.0396 117.675 25.2002C117.675 27.3607 116.011 29.1142 113.972 29.1142Z" fill="#8A98A3"/>
<path d="M54.7328 19.019H50.1289V28.444C50.1289 30.066 51.3554 31.3435 52.8782 31.3435H54.7328C58.91 31.3435 60.5631 28.1246 60.5631 25.0748C60.5631 22.2818 58.9633 19.019 54.7328 19.019ZM52.4871 21.4113H54.7328C57.2213 21.4113 58.1575 23.2963 58.2049 25.0623C58.2345 26.2083 57.8968 27.2229 57.2569 27.918C56.6466 28.5818 55.7934 28.92 54.7328 28.92H52.973C52.8426 28.92 52.7182 28.8699 52.6293 28.7697C52.5404 28.6695 52.4871 28.5442 52.4871 28.4065V21.4113Z" fill="#8A98A3"/>
<path d="M91.4509 25.1437C91.3264 24.9934 91.4272 24.8619 91.4568 24.8243L96.5583 19.019H93.5128L89.6496 23.5593C89.1519 24.1417 89.1045 24.8181 89.1045 25.0059V25.0874C89.1045 25.2815 89.1578 25.9704 89.6615 26.534L93.9572 31.3373H97.0561L91.4509 25.1375V25.1437Z" fill="#8A98A3"/>
<path d="M88.7134 19.019H86.3374V31.3435H88.7134V19.019Z" fill="#8A98A3"/>
<path d="M68.8171 12.6941C68.8171 13.5833 68.1357 14.3098 67.2884 14.3098C66.4411 14.3098 65.7656 13.5896 65.7656 12.6941C65.7656 11.7986 66.447 11.0784 67.2884 11.0784C68.1298 11.0784 68.8171 11.7986 68.8171 12.6941Z" fill="#8A98A3"/>
<path d="M67.2941 17.8356C66.8556 17.8356 66.4112 17.7479 66.0142 17.5726L60.0713 14.9611L60.4446 14.0092C60.7053 13.3454 61.4637 13.0072 62.1036 13.2891L66.9267 15.6312C67.0393 15.6813 67.1637 15.7064 67.2941 15.7064C67.4244 15.7064 67.5548 15.6813 67.6614 15.6312L72.4845 13.2891C73.1244 13.0072 73.8828 13.3517 74.1435 14.0092L74.5168 14.9611L68.5739 17.5726C68.1769 17.7479 67.7325 17.8356 67.2941 17.8356Z" fill="#8A98A3"/>
<path d="M67.2823 19.0129C66.5654 19.0129 65.9136 19.4388 65.5936 20.1151L60.9424 31.3374H63.9464L67.1994 22.0252C67.1994 22.0252 67.229 21.9563 67.2882 21.9563C67.3475 21.9563 67.3771 22.0252 67.3771 22.0252L70.63 31.3374H73.6341L68.9828 20.1151C68.6629 19.4388 68.0111 19.0129 67.2942 19.0129H67.2764H67.2823Z" fill="#8A98A3"/>
<path d="M21.8765 27.9001V24.7112H17.7923V25.6278H20.9961V26.2476H17.7923V27.1642H20.9961V27.9001H16.7651V28.8168H22.9037V27.9001H21.8765Z" fill="#8A98A3"/>
<path d="M18.709 29.23H17.8286V31.5927H21.9984V30.676H18.709V29.23Z" fill="#8A98A3"/>
<path d="M27 26.9705C27 26.6477 26.9022 26.3507 26.7554 26.0925H27.3913V25.1759H25.9484V24.4399H25.0679V25.1759H23.625V26.0925H24.2486C24.0897 26.3507 24.0041 26.6477 24.0041 26.9705C24.0041 27.8484 24.6889 28.5585 25.5204 28.5585C26.3519 28.5585 27.0244 27.8484 27.0244 26.9705M24.8723 26.9705C24.8723 26.596 25.1658 26.2862 25.5204 26.2862C25.875 26.2862 26.1685 26.596 26.1685 26.9705C26.1685 27.3449 25.875 27.6547 25.5204 27.6547C25.1658 27.6547 24.8723 27.3449 24.8723 26.9705Z" fill="#8A98A3"/>
<path d="M24.7378 29.9789H28.0272V31.709H28.9076V29.0623H24.7378V29.9789Z" fill="#8A98A3"/>
<path d="M28.8829 26.2993V24.5305H28.0024V28.5845H28.8829V27.0869H29.9834V26.2993H28.8829Z" fill="#8A98A3"/>
<path d="M3.10619 25.7441H5.11161V26.5833L2.97168 28.8298L3.58309 29.4753L5.99204 26.9448V24.8403H3.10619V25.7441Z" fill="#8A98A3"/>
<path d="M34.6057 28.6749H35.4739V25.0728H31.0962V25.9894H34.6057V28.6749Z" fill="#8A98A3"/>
<path d="M34.0434 29.5528V27.2546H33.163V29.5528H32.6127V27.2546H31.7323V29.5528H30.3872V30.4694H36.1345V29.5528H34.0434Z" fill="#8A98A3"/>
<path d="M15.065 24.5305H14.1968V28.3779H15.065V26.8545H16.1777V26.0669H15.065V24.5305Z" fill="#8A98A3"/>
<path d="M13.4876 28.6489C12.6072 28.6489 11.8857 29.3978 11.8857 30.3402C11.8857 31.2827 12.595 32.0186 13.4876 32.0186C14.3803 32.0186 15.0773 31.2698 15.0773 30.3402C15.0773 29.4107 14.3681 28.6489 13.4876 28.6489ZM13.4876 31.1149C13.0719 31.1149 12.7417 30.7663 12.7417 30.3273C12.7417 29.8884 13.0719 29.5398 13.4876 29.5398C13.9034 29.5398 14.2336 29.8884 14.2336 30.3273C14.2336 30.7663 13.9034 31.1149 13.4876 31.1149Z" fill="#8A98A3"/>
<path d="M13.5244 27.5903L12.1182 26.3638V25.6278H13.3777V24.7112H10.0027V25.6278H11.25V26.3638L9.85596 27.5903L10.4062 28.2875L11.6902 27.1642L12.9741 28.2875L13.5244 27.5903Z" fill="#8A98A3"/>
<path d="M7.89947 24.5435H7.01904V31.2442H7.89947V27.3193H9.01224V26.4026H7.89947V24.5435Z" fill="#8A98A3"/>
<path d="M24.1627 16.4482H23.6247C23.429 15.7252 22.8054 15.1829 22.0595 15.1829C21.1668 15.1829 20.4331 15.9576 20.4331 16.9001C20.4331 17.8426 21.1668 18.6172 22.0595 18.6172C22.8054 18.6172 23.429 18.0879 23.6247 17.3649H24.1749V21.4705H25.0554V14.7827H24.1749V16.4611L24.1627 16.4482ZM22.0472 17.7135C21.6192 17.7135 21.2768 17.352 21.2768 16.9001C21.2768 16.4482 21.6192 16.0867 22.0472 16.0867C22.4752 16.0867 22.8176 16.4482 22.8176 16.9001C22.8176 17.352 22.4752 17.7135 22.0472 17.7135Z" fill="#8A98A3"/>
<path d="M26.4004 14.7571H25.5322V21.4449H26.4004V14.7571Z" fill="#8A98A3"/>
<path d="M31.8543 16.4226H30.5337V17.3392H31.8543V21.4578H32.7348V14.7571H31.8543V16.4226Z" fill="#8A98A3"/>
<path d="M12.3135 14.7571H11.4331V21.4449H12.3135V14.7571Z" fill="#8A98A3"/>
<path d="M10.064 16.4226H9.1958V17.3392H10.064V21.4578H10.9322V14.7571H10.064V16.4226Z" fill="#8A98A3"/>
<path d="M8.16853 14.9636H7.2881V17.1714L5.86963 18.669L6.48104 19.3146L7.72831 17.9977L8.98782 19.3146L9.59923 18.669L8.16853 17.1714V14.9636Z" fill="#8A98A3"/>
<path d="M29.5313 14.9636H28.6509V17.1714L27.2324 18.669L27.8438 19.3146L29.0911 17.9977L30.3506 19.3146L30.962 18.669L29.5313 17.1714V14.9636Z" fill="#8A98A3"/>
<path d="M17.0091 18.8887C16.1165 18.8887 15.395 19.6504 15.395 20.5929C15.395 21.5354 16.1165 22.2842 17.0091 22.2842C17.9018 22.2842 18.6233 21.5225 18.6233 20.5929C18.6233 19.6633 17.9018 18.8887 17.0091 18.8887ZM17.0091 21.3805C16.5934 21.3805 16.251 21.019 16.251 20.58C16.251 20.141 16.5934 19.7795 17.0091 19.7795C17.4249 19.7795 17.7673 20.141 17.7673 20.58C17.7673 21.019 17.4249 21.3805 17.0091 21.3805Z" fill="#8A98A3"/>
<path d="M18.6114 14.7571H17.731V18.6174H18.6114V17.081H19.7242V16.2935H18.6114V14.7571Z" fill="#8A98A3"/>
<path d="M17.0582 17.9201L15.6275 16.3966V14.8989H14.7471V16.3966L13.3164 17.9201L13.9278 18.5656L15.1873 17.2229L16.4468 18.5656L17.0582 17.9201Z" fill="#8A98A3"/>
<path d="M17.4375 43.9999H21.6562L21.6807 43.9612C24.9212 39.7652 30.8763 39.4295 32.6249 39.4295H38.0298V35.7241H32.8573C26.523 35.7241 22.6834 37.919 20.5801 39.791C18.1345 41.96 17.4375 43.9999 17.4375 43.9999Z" fill="#8A98A3"/>
<path d="M18.5136 39.791C16.4103 37.9319 12.5707 35.7241 6.23649 35.7241H1.06396V39.4295H6.46883C8.04626 39.4295 13.0965 39.7006 16.4348 42.8767C16.765 42.1924 17.4253 41.0821 18.5747 39.8298C18.5503 39.8168 18.5381 39.791 18.5136 39.7781" fill="#8A98A3"/>
<path d="M19.5529 0L0 10.3028L1.76086 13.5434L23.5148 2.09155L19.5529 0Z" fill="#8A98A3"/>
<path d="M25.0069 2.87915L21.0449 4.95779L37.3451 13.5435L39.0937 10.3029L25.0069 2.87915Z" fill="#8A98A3"/>
</svg>
