<svg width="120" height="36" viewBox="0 0 120 36" fill="none" xmlns="http://www.w3.org/2000/svg">
<path d="M42.9834 29.0844C42.9834 30.284 43.4553 31.4057 44.3007 32.2444C45.1559 33.0929 46.2864 33.5611 47.4956 33.5611H57.562V29.6989H47.7119C47.4956 29.6989 47.2892 29.6111 47.1417 29.4648C46.9942 29.3185 46.9058 29.1137 46.9058 28.8991V25.5538H57.1885V21.8866H46.9058V18.1707H57.562V14.3669H42.9834V29.0844Z" fill="#657F86"/>
<path d="M93.6893 14.3669L88.7445 21.9841L84.016 14.3669H79.2188L86.7686 25.6513V33.5611H90.7106V25.6611L98.5554 14.3669H93.6893Z" fill="#657F86"/>
<path d="M107.924 13.9866C102.359 13.9866 97.8374 18.473 97.8374 23.9933C97.8374 29.5136 102.359 34 107.924 34C113.488 34 118 29.5136 118 23.9933C118 18.473 113.478 13.9866 107.924 13.9866ZM107.924 30.089C104.532 30.089 101.779 27.3581 101.779 23.9933C101.779 20.6285 104.532 17.8976 107.924 17.8976C111.315 17.8976 114.068 20.6285 114.068 23.9933C114.068 27.3581 111.305 30.089 107.924 30.089Z" fill="#657F86"/>
<path d="M9.63831 14.3669H2V29.0454C2 31.5715 4.03492 33.5611 6.56136 33.5611H9.63831C16.5688 33.5611 19.3115 28.548 19.3115 23.7982C19.3115 19.4483 16.6573 14.3669 9.63831 14.3669ZM5.91255 18.0926H9.63831C13.7671 18.0926 15.3203 21.0283 15.399 23.7787C15.4481 25.5635 14.8878 27.1435 13.8261 28.2261C12.8136 29.26 11.398 29.7866 9.63831 29.7866H6.71865C6.50238 29.7866 6.29593 29.7086 6.14848 29.5526C6.00102 29.3965 5.91255 29.2014 5.91255 28.9869V18.0926Z" fill="#657F86"/>
<path d="M70.5579 23.9055C70.3515 23.6714 70.5186 23.4666 70.5678 23.4081L79.0318 14.3669H73.9789L67.5694 21.438C66.7437 22.345 66.665 23.3983 66.665 23.6909V23.8177C66.665 24.1201 66.7535 25.1929 67.5891 26.0707L74.7162 33.5513H79.8576L70.5579 23.8957V23.9055Z" fill="#657F86"/>
<path d="M66.0163 14.3669H62.0742V33.5611H66.0163V14.3669Z" fill="#657F86"/>
<path d="M33.0056 4.51631C33.0056 5.90125 31.8751 7.03261 30.4693 7.03261C29.0635 7.03261 27.9429 5.911 27.9429 4.51631C27.9429 3.12161 29.0734 2 30.4693 2C31.8652 2 33.0056 3.12161 33.0056 4.51631Z" fill="#ED1C23"/>
<path d="M30.479 12.5236C29.7515 12.5236 29.0142 12.3871 28.3556 12.114L18.4956 8.04693L19.1149 6.56446C19.5475 5.53063 20.8058 5.00396 21.8675 5.44285L29.8695 9.09051C30.0563 9.16854 30.2627 9.20755 30.479 9.20755C30.6953 9.20755 30.9115 9.16854 31.0885 9.09051L39.0905 5.44285C40.1522 5.00396 41.4105 5.54038 41.8431 6.56446L42.4624 8.04693L32.6024 12.114C31.9437 12.3871 31.2064 12.5236 30.479 12.5236Z" fill="#ED1C23"/>
<path d="M30.4591 14.3572C29.2696 14.3572 28.1882 15.0204 27.6574 16.0737L19.9404 33.5513H24.9245L30.3215 19.0484C30.3215 19.0484 30.3706 18.9411 30.4689 18.9411C30.5672 18.9411 30.6164 19.0484 30.6164 19.0484L36.0133 33.5513H40.9974L33.2804 16.0737C32.7496 15.0204 31.6682 14.3572 30.4787 14.3572H30.4492H30.4591Z" fill="#657F86"/>
</svg>
