<svg width="143" height="44" viewBox="0 0 143 44" fill="none" xmlns="http://www.w3.org/2000/svg">
<path d="M138.657 25.7764H139.972V29.5777H143V30.7675H134.598V29.5777H136.227V25.7764H137.543V29.5777H138.657V25.7764Z" fill="white"/>
<path d="M141.086 28.1999H142.461V22.4197H135.273V23.6095H141.086V28.1999Z" fill="white"/>
<path d="M132.103 22.3008V25.1439H131.191V22.3008H129.87V31.3438H131.191V26.3964H132.103V31.3438H133.419V22.3008H132.103Z" fill="white"/>
<path d="M128.957 28.2563H126.581C126.415 28.2563 126.279 28.1123 126.279 27.9432V23.6597H128.957V22.4761H124.904V28.2939C124.904 28.9264 125.396 29.4462 125.995 29.4462H128.957V28.2563Z" fill="white"/>
<path d="M74.8308 28.4691C74.8308 29.2394 75.1152 29.9595 75.6248 30.4981C76.1403 31.0429 76.8217 31.3435 77.5505 31.3435H83.6178V28.8636H77.6808C77.5505 28.8636 77.426 28.8073 77.3371 28.7133C77.2483 28.6194 77.195 28.4879 77.195 28.3501V26.2021H83.3927V23.8474H77.195V21.4614H83.6178V19.019H74.8308V28.4691Z" fill="white"/>
<path d="M105.393 19.019L102.412 23.91L99.5624 19.019H96.6709L101.221 26.2647V31.3435H103.597V26.271L108.326 19.019H105.393Z" fill="white"/>
<path d="M113.973 18.7749C110.619 18.7749 107.893 21.6556 107.893 25.2002C107.893 28.7447 110.619 31.6255 113.973 31.6255C117.326 31.6255 120.046 28.7447 120.046 25.2002C120.046 21.6556 117.32 18.7749 113.973 18.7749ZM113.973 29.1142C111.928 29.1142 110.269 27.3607 110.269 25.2002C110.269 23.0396 111.928 21.2861 113.973 21.2861C116.017 21.2861 117.676 23.0396 117.676 25.2002C117.676 27.3607 116.011 29.1142 113.973 29.1142Z" fill="white"/>
<path d="M54.7328 19.019H50.1289V28.444C50.1289 30.066 51.3554 31.3435 52.8782 31.3435H54.7328C58.91 31.3435 60.5631 28.1246 60.5631 25.0748C60.5631 22.2818 58.9633 19.019 54.7328 19.019ZM52.4871 21.4113H54.7328C57.2213 21.4113 58.1575 23.2963 58.2049 25.0623C58.2345 26.2083 57.8968 27.2229 57.2569 27.918C56.6466 28.5818 55.7934 28.92 54.7328 28.92H52.973C52.8426 28.92 52.7182 28.8699 52.6293 28.7697C52.5404 28.6695 52.4871 28.5442 52.4871 28.4065V21.4113Z" fill="white"/>
<path d="M91.4511 25.1437C91.3267 24.9934 91.4274 24.8619 91.457 24.8243L96.5586 19.019H93.5131L89.6498 23.5593C89.1521 24.1417 89.1047 24.8181 89.1047 25.0059V25.0874C89.1047 25.2815 89.1581 25.9704 89.6617 26.534L93.9574 31.3373H97.0563L91.4511 25.1375V25.1437Z" fill="white"/>
<path d="M88.7134 19.019H86.3374V31.3435H88.7134V19.019Z" fill="white"/>
<path d="M68.8168 12.6941C68.8168 13.5833 68.1354 14.3098 67.2881 14.3098C66.4408 14.3098 65.7654 13.5896 65.7654 12.6941C65.7654 11.7986 66.4468 11.0784 67.2881 11.0784C68.1295 11.0784 68.8168 11.7986 68.8168 12.6941Z" fill="white"/>
<path d="M67.2941 17.8356C66.8556 17.8356 66.4112 17.7479 66.0142 17.5726L60.0713 14.9611L60.4446 14.0092C60.7053 13.3454 61.4637 13.0072 62.1036 13.2891L66.9267 15.6312C67.0393 15.6813 67.1637 15.7064 67.2941 15.7064C67.4244 15.7064 67.5548 15.6813 67.6614 15.6312L72.4845 13.2891C73.1244 13.0072 73.8828 13.3517 74.1435 14.0092L74.5168 14.9611L68.5739 17.5726C68.1769 17.7479 67.7325 17.8356 67.2941 17.8356Z" fill="white"/>
<path d="M67.2823 19.0129C66.5654 19.0129 65.9136 19.4388 65.5936 20.1151L60.9424 31.3374H63.9464L67.1994 22.0252C67.1994 22.0252 67.229 21.9563 67.2882 21.9563C67.3475 21.9563 67.3771 22.0252 67.3771 22.0252L70.63 31.3374H73.6341L68.9828 20.1151C68.6629 19.4388 68.0111 19.0129 67.2942 19.0129H67.2764H67.2823Z" fill="white"/>
<path d="M21.8763 27.9001V24.7112H17.7921V25.6278H20.9958V26.2476H17.7921V27.1642H20.9958V27.9001H16.7649V28.8168H22.9034V27.9001H21.8763Z" fill="white"/>
<path d="M18.709 29.23H17.8286V31.5927H21.9984V30.676H18.709V29.23Z" fill="white"/>
<path d="M26.9997 26.9705C26.9997 26.6477 26.9019 26.3507 26.7552 26.0925H27.391V25.1759H25.9481V24.4399H25.0677V25.1759H23.6248V26.0925H24.2484C24.0894 26.3507 24.0038 26.6477 24.0038 26.9705C24.0038 27.8484 24.6886 28.5585 25.5201 28.5585C26.3516 28.5585 27.0242 27.8484 27.0242 26.9705M24.872 26.9705C24.872 26.596 25.1655 26.2862 25.5201 26.2862C25.8747 26.2862 26.1682 26.596 26.1682 26.9705C26.1682 27.3449 25.8747 27.6547 25.5201 27.6547C25.1655 27.6547 24.872 27.3449 24.872 26.9705Z" fill="white"/>
<path d="M24.7375 29.9789H28.0269V31.709H28.9074V29.0623H24.7375V29.9789Z" fill="white"/>
<path d="M28.8829 26.2993V24.5305H28.0024V28.5845H28.8829V27.0869H29.9834V26.2993H28.8829Z" fill="white"/>
<path d="M3.10595 25.7441H5.11137V26.5833L2.97144 28.8298L3.58285 29.4753L5.9918 26.9448V24.8403H3.10595V25.7441Z" fill="white"/>
<path d="M34.6057 28.6749H35.4739V25.0728H31.0962V25.9894H34.6057V28.6749Z" fill="white"/>
<path d="M34.0434 29.5528V27.2546H33.163V29.5528H32.6127V27.2546H31.7323V29.5528H30.3872V30.4694H36.1345V29.5528H34.0434Z" fill="white"/>
<path d="M15.0652 24.5305H14.197V28.3779H15.0652V26.8545H16.178V26.0669H15.0652V24.5305Z" fill="white"/>
<path d="M13.4876 28.6489C12.6072 28.6489 11.8857 29.3978 11.8857 30.3402C11.8857 31.2827 12.595 32.0186 13.4876 32.0186C14.3803 32.0186 15.0773 31.2698 15.0773 30.3402C15.0773 29.4107 14.3681 28.6489 13.4876 28.6489ZM13.4876 31.1149C13.0719 31.1149 12.7417 30.7663 12.7417 30.3273C12.7417 29.8884 13.0719 29.5398 13.4876 29.5398C13.9034 29.5398 14.2336 29.8884 14.2336 30.3273C14.2336 30.7663 13.9034 31.1149 13.4876 31.1149Z" fill="white"/>
<path d="M13.5244 27.5903L12.1182 26.3638V25.6278H13.3777V24.7112H10.0027V25.6278H11.25V26.3638L9.85596 27.5903L10.4062 28.2875L11.6902 27.1642L12.9741 28.2875L13.5244 27.5903Z" fill="white"/>
<path d="M7.89947 24.5435H7.01904V31.2442H7.89947V27.3193H9.01224V26.4026H7.89947V24.5435Z" fill="white"/>
<path d="M24.1629 16.4482H23.6249C23.4293 15.7252 22.8056 15.1829 22.0597 15.1829C21.167 15.1829 20.4333 15.9576 20.4333 16.9001C20.4333 17.8426 21.167 18.6172 22.0597 18.6172C22.8056 18.6172 23.4293 18.0879 23.6249 17.3649H24.1752V21.4705H25.0556V14.7827H24.1752V16.4611L24.1629 16.4482ZM22.0475 17.7135C21.6195 17.7135 21.2771 17.352 21.2771 16.9001C21.2771 16.4482 21.6195 16.0867 22.0475 16.0867C22.4755 16.0867 22.8178 16.4482 22.8178 16.9001C22.8178 17.352 22.4755 17.7135 22.0475 17.7135Z" fill="white"/>
<path d="M26.4007 14.7571H25.5325V21.4449H26.4007V14.7571Z" fill="white"/>
<path d="M31.8543 16.4226H30.5337V17.3392H31.8543V21.4578H32.7348V14.7571H31.8543V16.4226Z" fill="white"/>
<path d="M12.3138 14.7571H11.4333V21.4449H12.3138V14.7571Z" fill="white"/>
<path d="M10.0638 16.4226H9.19556V17.3392H10.0638V21.4578H10.932V14.7571H10.0638V16.4226Z" fill="white"/>
<path d="M8.16828 14.9636H7.28785V17.1714L5.86938 18.669L6.48079 19.3146L7.72807 17.9977L8.98757 19.3146L9.59898 18.669L8.16828 17.1714V14.9636Z" fill="white"/>
<path d="M29.5311 14.9636H28.6506V17.1714L27.2322 18.669L27.8436 19.3146L29.0909 17.9977L30.3504 19.3146L30.9618 18.669L29.5311 17.1714V14.9636Z" fill="white"/>
<path d="M17.0094 18.8887C16.1167 18.8887 15.3953 19.6504 15.3953 20.5929C15.3953 21.5354 16.1167 22.2842 17.0094 22.2842C17.902 22.2842 18.6235 21.5225 18.6235 20.5929C18.6235 19.6633 17.902 18.8887 17.0094 18.8887ZM17.0094 21.3805C16.5936 21.3805 16.2512 21.019 16.2512 20.58C16.2512 20.141 16.5936 19.7795 17.0094 19.7795C17.4251 19.7795 17.7675 20.141 17.7675 20.58C17.7675 21.019 17.4251 21.3805 17.0094 21.3805Z" fill="white"/>
<path d="M18.6111 14.7571H17.7307V18.6174H18.6111V17.081H19.7239V16.2935H18.6111V14.7571Z" fill="white"/>
<path d="M17.0582 17.9201L15.6275 16.3966V14.8989H14.7471V16.3966L13.3164 17.9201L13.9278 18.5656L15.1873 17.2229L16.4468 18.5656L17.0582 17.9201Z" fill="white"/>
<path d="M17.4373 43.9999H21.656L21.6804 43.9612C24.9209 39.7652 30.876 39.4295 32.6247 39.4295H38.0295V35.7241H32.857C26.5228 35.7241 22.6831 37.919 20.5799 39.791C18.1343 41.96 17.4373 43.9999 17.4373 43.9999Z" fill="white"/>
<path d="M18.5134 39.791C16.4101 37.9319 12.5704 35.7241 6.23625 35.7241H1.06372V39.4295H6.46858C8.04602 39.4295 13.0963 39.7006 16.4346 42.8767C16.7647 42.1924 17.425 41.0821 18.5745 39.8298C18.55 39.8168 18.5378 39.791 18.5134 39.7781" fill="white"/>
<path d="M19.5529 0L0 10.3028L1.76086 13.5434L23.5148 2.09155L19.5529 0Z" fill="white"/>
<path d="M25.0066 2.87915L21.0447 4.95779L37.3449 13.5435L39.0935 10.3029L25.0066 2.87915Z" fill="white"/>
</svg>
