<svg width="99" height="80" viewBox="0 0 99 80" fill="none" xmlns="http://www.w3.org/2000/svg">
<path d="M49.8467 28.8921V25.584H45.4181V26.5291H48.8955V27.17H45.4181V28.1152H48.8955V28.8921H44.3062V29.8372H50.9716V28.8921H49.8467Z" fill="#221714"/>
<path d="M46.4083 30.2581H45.457V32.7116H49.9821V31.76H46.4083V30.2581Z" fill="#221714"/>
<path d="M55.4131 27.9212C55.4131 27.5845 55.3102 27.2738 55.1431 27.0148H55.8244V26.0697H54.2497V25.3123H53.2984V26.0697H51.7236V27.0148H52.405C52.2378 27.2803 52.135 27.591 52.135 27.9212C52.135 28.8275 52.8742 29.5655 53.774 29.5655C54.6739 29.5655 55.4067 28.8275 55.4067 27.9212M53.0734 27.9212C53.0734 27.5327 53.3884 27.2155 53.774 27.2155C54.1597 27.2155 54.4746 27.5327 54.4746 27.9212C54.4746 28.3096 54.1597 28.6268 53.774 28.6268C53.3884 28.6268 53.0734 28.3096 53.0734 27.9212Z" fill="#221714"/>
<path d="M52.958 31.0415H56.5253V32.8282H57.4766V30.0898H52.958V31.0415Z" fill="#221714"/>
<path d="M57.4509 27.2284V25.4028H56.4932V29.5913H57.4509V28.0376H58.6528V27.2284H57.4509Z" fill="#221714"/>
<path d="M29.4779 26.6588H31.6504V27.5198L29.3301 29.8439L29.9985 30.5106L32.6017 27.8953V25.7136H29.4779V26.6588Z" fill="#221714"/>
<path d="M63.66 29.6885H64.6113V25.9531H59.8613V26.9048H63.66V29.6885Z" fill="#221714"/>
<path d="M63.0492 30.5948V28.219H62.098V30.5948H61.5066V28.219H60.5489V30.5948H59.0898V31.54H65.3182V30.5948H63.0492Z" fill="#221714"/>
<path d="M42.4615 25.4028H41.5103V29.3842H42.4615V27.8046H43.6699V26.9889H42.4615V25.4028Z" fill="#221714"/>
<path d="M40.7456 29.6626C39.7879 29.6626 39.0166 30.4459 39.0166 31.4105C39.0166 32.3751 39.7879 33.1519 40.7456 33.1519C41.7033 33.1519 42.4746 32.3686 42.4746 31.4105C42.4746 30.4524 41.7033 29.6626 40.7456 29.6626ZM40.7456 32.2197C40.2957 32.2197 39.9357 31.8572 39.9357 31.4105C39.9357 30.9638 40.2957 30.5948 40.7456 30.5948C41.1956 30.5948 41.5491 30.9638 41.5491 31.4105C41.5491 31.8572 41.1891 32.2197 40.7456 32.2197Z" fill="#221714"/>
<path d="M40.7775 28.5554L39.267 27.293V26.5291H40.6168V25.584H36.9659V26.5291H38.3157V27.293L36.7988 28.5554L37.3966 29.287L38.7914 28.1282L40.1797 29.287L40.7775 28.5554Z" fill="#221714"/>
<path d="M34.6779 25.4028H33.7202V32.3427H34.6779V28.2836H35.8863V27.3385H34.6779V25.4028Z" fill="#221714"/>
<path d="M52.3282 17.0193H51.7433C51.5376 16.2683 50.8563 15.7116 50.04 15.7116C49.0694 15.7116 48.2788 16.5143 48.2788 17.4854C48.2788 18.4564 49.0694 19.2592 50.04 19.2592C50.8499 19.2592 51.5312 18.7089 51.7369 17.9644H52.3282V22.2112H53.2795V15.2778H52.3282V17.0193ZM50.04 18.327C49.5772 18.327 49.2044 17.9515 49.2044 17.4854C49.2044 17.0193 49.5772 16.6438 50.04 16.6438C50.5028 16.6438 50.882 17.0193 50.882 17.4854C50.882 17.9515 50.5028 18.327 50.04 18.327Z" fill="#221714"/>
<path d="M54.7706 15.2844H53.8193V22.2178H54.7706V15.2844Z" fill="#221714"/>
<path d="M60.6839 17H59.2441V17.9516H60.6839V22.2113H61.6288V15.2844H60.6839V17Z" fill="#221714"/>
<path d="M39.4664 15.2844H38.5151V22.2178H39.4664V15.2844Z" fill="#221714"/>
<path d="M37.0304 17H36.0791V17.9516H37.0304V22.2113H37.9752V15.2844H37.0304V17Z" fill="#221714"/>
<path d="M34.9733 15.4917H34.022V17.7704L32.4858 19.3306L33.1479 19.9974L34.5041 18.6315L35.8603 19.9974L36.5224 19.3306L34.9733 17.7704V15.4917Z" fill="#221714"/>
<path d="M58.158 15.4917H57.2067V17.7704L55.6641 19.3306L56.3325 19.9974L57.6823 18.6315L59.045 19.9974L59.707 19.3306L58.158 17.7704V15.4917Z" fill="#221714"/>
<path d="M44.5701 19.5508C43.6059 19.5508 42.8218 20.3341 42.8218 21.3116C42.8218 22.2892 43.6059 23.066 44.5701 23.066C45.5342 23.066 46.3184 22.2762 46.3184 21.3116C46.3184 20.347 45.5342 19.5508 44.5701 19.5508ZM44.5701 22.1338C44.1137 22.1338 43.7474 21.7648 43.7474 21.3052C43.7474 20.8455 44.1137 20.4765 44.5701 20.4765C45.0264 20.4765 45.3928 20.8455 45.3928 21.3052C45.3928 21.7648 45.0264 22.1338 44.5701 22.1338Z" fill="#221714"/>
<path d="M46.2989 15.2844H45.3477V19.2722H46.2989V17.6797H47.5138V16.8705H46.2989V15.2844Z" fill="#221714"/>
<path d="M44.6213 18.5472L43.0658 16.9806V15.4204H42.1081V16.9806L40.5591 18.5472L41.2211 19.2205L42.5902 17.8351L43.9593 19.2205L44.6213 18.5472Z" fill="#221714"/>
<path d="M47.3274 0L43.0273 2.16222L66.6359 14.0221L68.5385 10.6622L47.3274 0Z" fill="#FDB913"/>
<path d="M47.3274 0L26.1099 10.6622L28.0124 14.0221L51.621 2.16222L47.3274 0Z" fill="#F37321"/>
<path d="M49.6155 45.5555H45.0327L45.0005 45.5166C41.4782 41.1727 35.012 40.8296 33.1159 40.8296H27.2539V36.9907H32.8716C39.7427 36.9907 43.9142 39.2695 46.196 41.1986C48.8442 43.445 49.6091 45.5555 49.6091 45.5555" fill="#45B97C"/>
<path d="M45.0327 45.5555H49.6156L49.6477 45.5166C53.1701 41.1727 59.6362 40.8296 61.5324 40.8296H67.3943V36.9907H61.7766C54.9055 36.9907 50.734 39.2695 48.4522 41.1986C45.804 43.445 45.0391 45.5555 45.0391 45.5555" fill="#0099D7"/>
<path d="M94.3701 73.9949H95.7722V77.9017H98.9998V79.1246H90.0435V77.9017H91.7804V73.9949H93.1826V77.9017H94.3701V73.9949Z" fill="#657F86"/>
<path d="M96.9535 76.4857H98.4252V70.5449H90.7637V71.7678H96.9535V76.4857Z" fill="#657F86"/>
<path d="M87.3846 70.4229V73.3449H86.4119V70.4229H85.0034V79.7169H86.4119V74.6322H87.3846V79.7169H88.7868V70.4229H87.3846Z" fill="#657F86"/>
<path d="M84.0307 76.5438H81.4979C81.3211 76.5438 81.1758 76.3958 81.1758 76.222V71.8196H84.0307V70.5967H79.7104V76.576C79.7104 77.2261 80.2284 77.7603 80.8726 77.7603H84.0307V76.5374V76.5438Z" fill="#657F86"/>
<path d="M26.332 76.7627C26.332 77.5544 26.6352 78.2946 27.1784 78.8481C27.7279 79.4081 28.4543 79.717 29.2312 79.717H35.6989V77.1682H29.3701C29.2312 77.1682 29.0985 77.1103 29.0038 77.0137C28.909 76.9172 28.8522 76.782 28.8522 76.6404V74.4328H35.4589V72.0127H28.8522V69.5605H35.6989V67.0503H26.332V76.7627Z" fill="#657F86"/>
<path d="M58.9112 67.0503L55.7342 72.0771L52.6961 67.0503H49.6138L54.4646 74.4971V79.717H56.9974V74.5036L62.0377 67.0503H58.9112Z" fill="#657F86"/>
<path d="M68.0571 66.7991C64.4821 66.7991 61.5767 69.7598 61.5767 73.3963C61.5767 77.0328 64.4821 80 68.0571 80C71.632 80 74.5312 77.0393 74.5312 73.3963C74.5312 69.7533 71.6257 66.7991 68.0571 66.7991ZM68.0571 77.4255C65.878 77.4255 64.1095 75.6233 64.1095 73.4028C64.1095 71.1822 65.878 69.38 68.0571 69.38C70.2362 69.38 72.0047 71.1822 72.0047 73.4028C72.0047 75.6233 70.2298 77.4255 68.0571 77.4255Z" fill="#657F86"/>
<path d="M4.90768 67.0503H0V76.737C0 78.404 1.30114 79.717 2.93071 79.717H4.90768C9.3606 79.717 11.1228 76.4087 11.1228 73.2742C11.1228 70.4036 9.41744 67.0503 4.90768 67.0503ZM2.51384 69.509H4.90768C7.56048 69.509 8.55844 71.4463 8.60897 73.2614C8.64055 74.4392 8.28053 75.4819 7.59838 76.1963C6.94781 76.8786 6.03828 77.2261 4.90768 77.2261H3.03177C2.89282 77.2261 2.76018 77.1682 2.66543 77.0717C2.57069 76.9687 2.51384 76.84 2.51384 76.6984V69.509Z" fill="#657F86"/>
<path d="M44.0491 73.345C43.9164 73.1906 44.0238 73.0554 44.0554 73.0168L49.4936 67.0503H46.2471L42.1289 71.7166C41.5984 72.3152 41.5479 73.0103 41.5479 73.2034V73.2871C41.5479 73.4866 41.6047 74.1946 42.1416 74.7739L46.7208 79.7106H50.0242L44.0491 73.3386V73.345Z" fill="#657F86"/>
<path d="M41.1309 67.0503H38.5981V79.717H41.1309V67.0503Z" fill="#657F86"/>
<path d="M19.9213 60.5495C19.9213 61.4634 19.1949 62.2101 18.2917 62.2101C17.3885 62.2101 16.6685 61.4699 16.6685 60.5495C16.6685 59.6291 17.3948 58.8889 18.2917 58.8889C19.1886 58.8889 19.9213 59.6291 19.9213 60.5495Z" fill="#ED1C23"/>
<path d="M18.298 65.8337C17.8306 65.8337 17.3569 65.7436 16.9337 65.5634L10.5923 62.8795L10.9902 61.9011C11.2681 61.2189 12.0766 60.8713 12.7587 61.161L17.9001 63.5682C18.0201 63.6196 18.1528 63.6454 18.2917 63.6454C18.4307 63.6454 18.5696 63.6196 18.6833 63.5682L23.8247 61.161C24.5069 60.8713 25.3153 61.2253 25.5932 61.9011L25.9912 62.8795L19.6497 65.5634C19.2265 65.7436 18.7528 65.8337 18.2854 65.8337H18.298Z" fill="#ED1C23"/>
<path d="M18.2852 67.0503C17.5209 67.0503 16.8261 67.488 16.4851 68.1831L11.5269 79.717H14.7292L18.1968 70.1462C18.1968 70.1462 18.2283 70.0754 18.2915 70.0754C18.3547 70.0754 18.3862 70.1462 18.3862 70.1462L21.8538 79.717H25.0561L20.0979 68.1831C19.7569 67.488 19.0621 67.0503 18.2978 67.0503H18.2789H18.2852Z" fill="#657F86"/>
</svg>
