<svg width="99" height="80" viewBox="0 0 99 80" fill="none" xmlns="http://www.w3.org/2000/svg">
<path d="M49.8526 28.8867V25.585H45.42V26.534H48.8971V27.1757H45.42V28.1247H48.8971V28.8867H44.3052V29.8357H50.9674V28.8867H49.8526Z" fill="white"/>
<path d="M46.415 30.2634H45.4595V32.7096H49.985V31.7606H46.415V30.2634Z" fill="white"/>
<path d="M55.4129 27.9242C55.4129 27.59 55.3067 27.2825 55.1475 27.0152H55.8376V26.0661H54.2716V25.3042H53.316V26.0661H51.75V27.0152H52.4268C52.2543 27.2825 52.1614 27.59 52.1614 27.9242C52.1614 28.8331 52.9046 29.5683 53.8071 29.5683C54.7095 29.5683 55.4394 28.8331 55.4394 27.9242M53.1037 27.9242C53.1037 27.5365 53.4222 27.2157 53.8071 27.2157C54.1919 27.2157 54.5104 27.5365 54.5104 27.9242C54.5104 28.3118 54.1919 28.6326 53.8071 28.6326C53.4222 28.6326 53.1037 28.3118 53.1037 27.9242Z" fill="white"/>
<path d="M52.958 31.0387H56.528V32.8299H57.4835V30.0896H52.958V31.0387Z" fill="white"/>
<path d="M57.457 27.229V25.3977H56.5015V29.595H57.457V28.0444H58.6514V27.229H57.457Z" fill="white"/>
<path d="M29.4809 26.6542H31.6575V27.5231L29.335 29.849L29.9985 30.5173L32.613 27.8974V25.7185H29.4809V26.6542Z" fill="white"/>
<path d="M63.6678 29.6887H64.61V25.9592H59.8589V26.9083H63.6678V29.6887Z" fill="white"/>
<path d="M63.0575 30.5976V28.2183H62.102V30.5976H61.5047V28.2183H60.5492V30.5976H59.0894V31.5467H65.3269V30.5976H63.0575Z" fill="white"/>
<path d="M42.4603 25.3977H41.5181V29.3811H42.4603V27.8038H43.668V26.9884H42.4603V25.3977Z" fill="white"/>
<path d="M40.7483 29.6619C39.7928 29.6619 39.0098 30.4372 39.0098 31.413C39.0098 32.3888 39.7795 33.1507 40.7483 33.1507C41.7171 33.1507 42.4736 32.3754 42.4736 31.413C42.4736 30.4505 41.7039 29.6619 40.7483 29.6619ZM40.7483 32.215C40.2971 32.215 39.9388 31.8541 39.9388 31.3996C39.9388 30.9451 40.2971 30.5842 40.7483 30.5842C41.1995 30.5842 41.5579 30.9451 41.5579 31.3996C41.5579 31.8541 41.1995 32.215 40.7483 32.215Z" fill="white"/>
<path d="M40.7881 28.5659L39.2618 27.296V26.534H40.6288V25.585H36.9659V26.534H38.3196V27.296L36.8066 28.5659L37.4039 29.2877L38.7973 28.1247L40.1908 29.2877L40.7881 28.5659Z" fill="white"/>
<path d="M34.6831 25.4111H33.7275V32.3487H34.6831V28.2851H35.8908V27.336H34.6831V25.4111Z" fill="white"/>
<path d="M52.3339 17.0298H51.75C51.5376 16.2812 50.8608 15.7198 50.0512 15.7198C49.0824 15.7198 48.2861 16.5218 48.2861 17.4976C48.2861 18.4735 49.0824 19.2755 50.0512 19.2755C50.8608 19.2755 51.5376 18.7274 51.75 17.9789H52.3472V22.2296H53.3027V15.3054H52.3472V17.0432L52.3339 17.0298ZM50.038 18.3398C49.5735 18.3398 49.2019 17.9655 49.2019 17.4976C49.2019 17.0298 49.5735 16.6555 50.038 16.6555C50.5025 16.6555 50.8741 17.0298 50.8741 17.4976C50.8741 17.9655 50.5025 18.3398 50.038 18.3398Z" fill="white"/>
<path d="M54.7626 15.2788H53.8203V22.203H54.7626V15.2788Z" fill="white"/>
<path d="M60.6818 17.0032H59.2485V17.9523H60.6818V22.2164H61.6374V15.2788H60.6818V17.0032Z" fill="white"/>
<path d="M39.4741 15.2788H38.5186V22.203H39.4741V15.2788Z" fill="white"/>
<path d="M37.0321 17.0032H36.0898V17.9523H37.0321V22.2164H37.9744V15.2788H37.0321V17.0032Z" fill="white"/>
<path d="M34.975 15.4927H34.0195V17.7785L32.48 19.3291L33.1435 19.9974L34.4972 18.634L35.8642 19.9974L36.5277 19.3291L34.975 17.7785V15.4927Z" fill="white"/>
<path d="M58.1601 15.4927H57.2045V17.7785L55.665 19.3291L56.3286 19.9974L57.6823 18.634L59.0492 19.9974L59.7128 19.3291L58.1601 17.7785V15.4927Z" fill="white"/>
<path d="M44.5702 19.5562C43.6014 19.5562 42.8184 20.3448 42.8184 21.3206C42.8184 22.2964 43.6014 23.0717 44.5702 23.0717C45.539 23.0717 46.322 22.2831 46.322 21.3206C46.322 20.3582 45.539 19.5562 44.5702 19.5562ZM44.5702 22.136C44.119 22.136 43.7474 21.7617 43.7474 21.3073C43.7474 20.8528 44.119 20.4785 44.5702 20.4785C45.0214 20.4785 45.393 20.8528 45.393 21.3073C45.393 21.7617 45.0214 22.136 44.5702 22.136Z" fill="white"/>
<path d="M46.3091 15.2788H45.3535V19.2756H46.3091V17.6849H47.5168V16.8695H46.3091V15.2788Z" fill="white"/>
<path d="M44.6235 18.5537L43.0708 16.9764V15.4258H42.1152V16.9764L40.5625 18.5537L41.2261 19.2221L42.593 17.8319L43.96 19.2221L44.6235 18.5537Z" fill="white"/>
<path d="M45.0347 45.5557H49.6133L49.6398 45.5156C53.1567 41.1712 59.6199 40.8237 61.5177 40.8237H67.3837V36.9873H61.7699C54.8953 36.9873 50.7281 39.2597 48.4454 41.198C45.7911 43.4437 45.0347 45.5557 45.0347 45.5557Z" fill="white"/>
<path d="M46.2029 41.198C43.9202 39.2731 39.753 36.9873 32.8784 36.9873H27.2646V40.8237H33.1306C34.8426 40.8237 40.3237 41.1044 43.9468 44.3928C44.3051 43.6843 45.0217 42.5347 46.2693 41.2381C46.2427 41.2247 46.2294 41.198 46.2029 41.1846" fill="white"/>
<path d="M47.3308 0L26.1099 10.6671L28.0209 14.0222L51.6307 2.16549L47.3308 0Z" fill="white"/>
<path d="M53.2496 2.98096L48.9497 5.13308L66.6404 14.0223L68.5383 10.6671L53.2496 2.98096Z" fill="white"/>
<path d="M94.3705 73.9949H95.7727V77.9017H99.0003V79.1246H90.0439V77.9017H91.7809V73.9949H93.1831V77.9017H94.3705V73.9949Z" fill="white"/>
<path d="M96.9535 76.4857H98.4252V70.5449H90.7637V71.7678H96.9535V76.4857Z" fill="white"/>
<path d="M87.3846 70.4229V73.3449H86.4119V70.4229H85.0034V79.7169H86.4119V74.6322H87.3846V79.7169H88.7868V70.4229H87.3846Z" fill="white"/>
<path d="M84.0307 76.5438H81.4979C81.3211 76.5438 81.1758 76.3958 81.1758 76.222V71.8196H84.0307V70.5967H79.7104V76.576C79.7104 77.2261 80.2284 77.7603 80.8726 77.7603H84.0307V76.5374V76.5438Z" fill="white"/>
<path d="M26.332 76.7627C26.332 77.5544 26.6352 78.2946 27.1784 78.8481C27.7279 79.4081 28.4543 79.717 29.2312 79.717H35.6989V77.1682H29.3701C29.2312 77.1682 29.0985 77.1103 29.0038 77.0137C28.909 76.9172 28.8522 76.782 28.8522 76.6404V74.4328H35.4589V72.0127H28.8522V69.5605H35.6989V67.0503H26.332V76.7627Z" fill="white"/>
<path d="M58.9112 67.0503L55.7342 72.0771L52.6961 67.0503H49.6138L54.4646 74.4971V79.717H56.9974V74.5036L62.0377 67.0503H58.9112Z" fill="white"/>
<path d="M68.0571 66.7991C64.4821 66.7991 61.5767 69.7598 61.5767 73.3963C61.5767 77.0328 64.4821 80 68.0571 80C71.632 80 74.5312 77.0393 74.5312 73.3963C74.5312 69.7533 71.6257 66.7991 68.0571 66.7991ZM68.0571 77.4255C65.878 77.4255 64.1095 75.6233 64.1095 73.4028C64.1095 71.1822 65.878 69.38 68.0571 69.38C70.2362 69.38 72.0047 71.1822 72.0047 73.4028C72.0047 75.6233 70.2298 77.4255 68.0571 77.4255Z" fill="white"/>
<path d="M4.90768 67.0503H0V76.737C0 78.404 1.30114 79.717 2.93071 79.717H4.90768C9.3606 79.717 11.1228 76.4087 11.1228 73.2742C11.1228 70.4036 9.41744 67.0503 4.90768 67.0503ZM2.51384 69.509H4.90768C7.56048 69.509 8.55844 71.4463 8.60897 73.2614C8.64055 74.4392 8.28053 75.4819 7.59838 76.1963C6.94781 76.8786 6.03828 77.2261 4.90768 77.2261H3.03177C2.89282 77.2261 2.76018 77.1682 2.66543 77.0717C2.57069 76.9687 2.51384 76.84 2.51384 76.6984V69.509Z" fill="white"/>
<path d="M44.0491 73.345C43.9164 73.1906 44.0238 73.0554 44.0554 73.0168L49.4936 67.0503H46.2471L42.1289 71.7166C41.5984 72.3152 41.5479 73.0103 41.5479 73.2034V73.2871C41.5479 73.4866 41.6047 74.1946 42.1416 74.7739L46.7208 79.7106H50.0242L44.0491 73.3386V73.345Z" fill="white"/>
<path d="M41.1309 67.0503H38.5981V79.717H41.1309V67.0503Z" fill="white"/>
<path d="M19.9213 60.5495C19.9213 61.4634 19.1949 62.2101 18.2917 62.2101C17.3885 62.2101 16.6685 61.4699 16.6685 60.5495C16.6685 59.6291 17.3948 58.8889 18.2917 58.8889C19.1886 58.8889 19.9213 59.6291 19.9213 60.5495Z" fill="white"/>
<path d="M18.298 65.8337C17.8306 65.8337 17.3569 65.7436 16.9337 65.5634L10.5923 62.8795L10.9902 61.9011C11.2681 61.2189 12.0766 60.8713 12.7587 61.161L17.9001 63.5682C18.0201 63.6196 18.1528 63.6454 18.2917 63.6454C18.4307 63.6454 18.5696 63.6196 18.6833 63.5682L23.8247 61.161C24.5069 60.8713 25.3153 61.2253 25.5932 61.9011L25.9912 62.8795L19.6497 65.5634C19.2265 65.7436 18.7528 65.8337 18.2854 65.8337H18.298Z" fill="white"/>
<path d="M18.2852 67.0503C17.5209 67.0503 16.8261 67.488 16.4851 68.1831L11.5269 79.717H14.7292L18.1968 70.1462C18.1968 70.1462 18.2283 70.0754 18.2915 70.0754C18.3547 70.0754 18.3862 70.1462 18.3862 70.1462L21.8538 79.717H25.0561L20.0979 68.1831C19.7569 67.488 19.0621 67.0503 18.2978 67.0503H18.2789H18.2852Z" fill="white"/>
</svg>
