<svg width="143" height="44" viewBox="0 0 143 44" fill="none" xmlns="http://www.w3.org/2000/svg">
<path d="M21.8665 27.8993V24.7117H17.7851V25.626H20.9944V26.2397H17.7851V27.154H20.9944V27.8993H16.7588V28.8136H22.9046V27.8993H21.8665Z" fill="#221714"/>
<path d="M18.7041 29.2207H17.8262V31.5879H21.9965V30.6736H18.7041V29.2207Z" fill="#221714"/>
<path d="M26.9977 26.9598C26.9977 26.6342 26.9028 26.3398 26.7486 26.0831H27.3774V25.1687H25.9299V24.436H25.052V25.1687H23.6045V26.0831H24.2333C24.0791 26.3398 23.9842 26.6404 23.9842 26.9598C23.9842 27.8365 24.6664 28.5505 25.4969 28.5505C26.3274 28.5505 27.0037 27.8365 27.0037 26.9598M24.8503 26.9598C24.8503 26.5841 25.1409 26.2772 25.4969 26.2772C25.8528 26.2772 26.1435 26.5841 26.1435 26.9598C26.1435 27.3355 25.8528 27.6424 25.4969 27.6424C25.1409 27.6424 24.8503 27.3355 24.8503 26.9598Z" fill="#221714"/>
<path d="M24.7373 29.9783H28.0238V31.7067H28.9017V29.064H24.7373V29.9783Z" fill="#221714"/>
<path d="M28.878 26.296V24.53H27.9941V28.5756H28.878V27.0788H29.9814V26.296H28.878Z" fill="#221714"/>
<path d="M3.10275 25.7449H5.10192V26.5778L2.96631 28.8197L3.57733 29.4648L5.97989 26.941V24.8306H3.10275V25.7449Z" fill="#221714"/>
<path d="M34.5967 28.6758H35.4687V25.0686H31.0967V25.9829H34.5967V28.6758Z" fill="#221714"/>
<path d="M34.0331 29.5462V27.2542H33.1551V29.5462H32.6094V27.2542H31.7314V29.5462H30.3848V30.4605H36.1272V29.5462H34.0331Z" fill="#221714"/>
<path d="M15.0621 24.53H14.1841V28.3752H15.0621V26.8534H16.1773V26.0643H15.0621V24.53Z" fill="#221714"/>
<path d="M13.484 28.6509C12.6001 28.6509 11.8882 29.4024 11.8882 30.3355C11.8882 31.2686 12.6001 32.0138 13.484 32.0138C14.3679 32.0138 15.0738 31.2623 15.0738 30.3355C15.0738 29.4086 14.3619 28.6509 13.484 28.6509ZM13.484 31.1183C13.0687 31.1183 12.7365 30.7676 12.7365 30.3355C12.7365 29.9034 13.0687 29.5464 13.484 29.5464C13.8992 29.5464 14.2255 29.9034 14.2255 30.3355C14.2255 30.7676 13.8933 31.1183 13.484 31.1183Z" fill="#221714"/>
<path d="M13.5138 27.58L12.1197 26.3589V25.6261H13.3655V24.7056H10.0019V25.6261H11.2477V26.3589L9.84766 27.58L10.3994 28.2814L11.6807 27.1667L12.9621 28.2814L13.5138 27.58Z" fill="#221714"/>
<path d="M7.88969 24.5364H7.01172V31.2309H7.88969V27.3169H9.00495V26.4026H7.88969V24.5364Z" fill="#221714"/>
<path d="M24.1563 16.4391H23.6164C23.4266 15.7126 22.7978 15.1741 22.0444 15.1741C21.1486 15.1741 20.4189 15.9443 20.4189 16.89C20.4189 17.8356 21.1486 18.6059 22.0444 18.6059C22.7918 18.6059 23.4147 18.0736 23.6105 17.3534H24.1563V21.4553H25.0342V14.7607H24.1563V16.4391ZM22.0444 17.7041C21.6232 17.7041 21.2732 17.3409 21.2732 16.89C21.2732 16.4391 21.6173 16.0759 22.0444 16.0759C22.4715 16.0759 22.8215 16.4391 22.8215 16.89C22.8215 17.3409 22.4715 17.7041 22.0444 17.7041Z" fill="#221714"/>
<path d="M26.4043 14.7607H25.5264V21.4553H26.4043V14.7607Z" fill="#221714"/>
<path d="M31.8502 16.4203H30.5273V17.3346H31.8502V21.4553H32.7282V14.7607H31.8502V16.4203Z" fill="#221714"/>
<path d="M12.3096 14.7607H11.4316V21.4553H12.3096V14.7607Z" fill="#221714"/>
<path d="M10.0611 16.4203H9.18311V17.3346H10.0611V21.4553H10.9331V14.7607H10.0611V16.4203Z" fill="#221714"/>
<path d="M8.16883 14.9609H7.29085V17.1653L5.87305 18.6683L6.48407 19.3133L7.72984 17.9982L8.98154 19.3133L9.59257 18.6683L8.16883 17.1653V14.9609Z" fill="#221714"/>
<path d="M29.5307 14.9609H28.6527V17.1653L27.229 18.6683L27.84 19.3133L29.0917 17.9982L30.3434 19.3133L30.9545 18.6683L29.5307 17.1653V14.9609Z" fill="#221714"/>
<path d="M17.0075 18.8813C16.1177 18.8813 15.3999 19.6391 15.3999 20.5785C15.3999 21.5178 16.1236 22.2756 17.0075 22.2756C17.8914 22.2756 18.6152 21.5116 18.6152 20.5785C18.6152 19.6454 17.8914 18.8813 17.0075 18.8813ZM17.0075 21.3801C16.5864 21.3801 16.2482 21.0231 16.2482 20.5847C16.2482 20.1464 16.5864 19.7831 17.0075 19.7831C17.4287 19.7831 17.7669 20.1401 17.7669 20.5847C17.7669 21.0294 17.4287 21.3801 17.0075 21.3801Z" fill="#221714"/>
<path d="M18.6036 14.7607H17.7256V18.6121H18.6036V17.0716H19.7188V16.295H18.6036V14.7607Z" fill="#221714"/>
<path d="M17.0553 17.9106L15.6197 16.3951V14.8921H14.7417V16.3951L13.312 17.9106L13.923 18.5619L15.1866 17.228L16.4442 18.5619L17.0553 17.9106Z" fill="#221714"/>
<path d="M21.6588 44H17.4351L17.4054 43.9624C14.1605 39.7666 8.20451 39.4347 6.4545 39.4347H1.05615V35.7273H6.235C12.5647 35.7273 16.4147 37.9254 18.5148 39.7854C20.9588 41.9522 21.6588 43.9937 21.6588 43.9937" fill="#45B97C"/>
<path d="M17.6929 44H21.9166L21.9463 43.9624C25.1912 39.7666 31.1472 39.4347 32.8972 39.4347H38.2956V35.7273H33.1167C26.787 35.7273 22.937 37.9254 20.837 39.7854C18.3929 41.9522 17.6929 43.9937 17.6929 43.9937" fill="#0099D7"/>
<path d="M19.5467 0L15.5898 2.0854L37.3375 13.5457L39.0934 10.2955L19.5467 0Z" fill="#FDB913"/>
<path d="M19.5468 0L0 10.2955L1.75595 13.5457L23.5036 2.0854L19.5468 0Z" fill="#F37321"/>
<path d="M138.66 25.7764H139.975V29.5777H143.003V30.7675H134.601V29.5777H136.23V25.7764H137.546V29.5777H138.66V25.7764Z" fill="#657F86"/>
<path d="M141.089 28.1999H142.464V22.4197H135.277V23.6095H141.089V28.1999Z" fill="#657F86"/>
<path d="M132.107 22.3008V25.1439H131.194V22.3008H129.873V31.3438H131.194V26.3964H132.107V31.3438H133.422V22.3008H132.107Z" fill="#657F86"/>
<path d="M128.961 28.2563H126.585C126.419 28.2563 126.282 28.1123 126.282 27.9432V23.6597H128.961V22.4761H124.908V28.2939C124.908 28.9264 125.4 29.4462 125.998 29.4462H128.961V28.2563Z" fill="#657F86"/>
<path d="M74.8345 28.4691C74.8345 29.2394 75.1189 29.9595 75.6284 30.4981C76.1439 31.0429 76.8253 31.3435 77.5541 31.3435H83.6215V28.8636H77.6845C77.5541 28.8636 77.4297 28.8073 77.3408 28.7133C77.2519 28.6194 77.1986 28.4879 77.1986 28.3501V26.2021H83.3963V23.8474H77.1986V21.4614H83.6215V19.019H74.8345V28.4691Z" fill="#657F86"/>
<path d="M105.396 19.019L102.416 23.91L99.5658 19.019H96.6743L101.225 26.2647V31.3435H103.601V26.271L108.329 19.019H105.396Z" fill="#657F86"/>
<path d="M113.976 18.7749C110.622 18.7749 107.896 21.6556 107.896 25.2002C107.896 28.7447 110.622 31.6255 113.976 31.6255C117.329 31.6255 120.049 28.7447 120.049 25.2002C120.049 21.6556 117.323 18.7749 113.976 18.7749ZM113.976 29.1142C111.932 29.1142 110.272 27.3607 110.272 25.2002C110.272 23.0396 111.932 21.2861 113.976 21.2861C116.02 21.2861 117.679 23.0396 117.679 25.2002C117.679 27.3607 116.014 29.1142 113.976 29.1142Z" fill="#657F86"/>
<path d="M54.7362 19.019H50.1323V28.444C50.1323 30.066 51.3588 31.3435 52.8816 31.3435H54.7362C58.9134 31.3435 60.5665 28.1246 60.5665 25.0748C60.5665 22.2818 58.9667 19.019 54.7362 19.019ZM52.4905 21.4113H54.7362C57.2247 21.4113 58.1609 23.2963 58.2083 25.0623C58.2379 26.2083 57.9002 27.2229 57.2603 27.918C56.65 28.5818 55.7968 28.92 54.7362 28.92H52.9764C52.846 28.92 52.7216 28.8699 52.6327 28.7697C52.5439 28.6695 52.4905 28.5442 52.4905 28.4065V21.4113Z" fill="#657F86"/>
<path d="M91.4543 25.1437C91.3298 24.9934 91.4306 24.8619 91.4602 24.8243L96.5618 19.019H93.5162L89.653 23.5593C89.1553 24.1417 89.1079 24.8181 89.1079 25.0059V25.0874C89.1079 25.2815 89.1612 25.9704 89.6649 26.534L93.9606 31.3373H97.0595L91.4543 25.1375V25.1437Z" fill="#657F86"/>
<path d="M88.7168 19.019H86.3408V31.3435H88.7168V19.019Z" fill="#657F86"/>
<path d="M68.82 12.6941C68.82 13.5833 68.1386 14.3098 67.2913 14.3098C66.444 14.3098 65.7686 13.5896 65.7686 12.6941C65.7686 11.7986 66.4499 11.0784 67.2913 11.0784C68.1327 11.0784 68.82 11.7986 68.82 12.6941Z" fill="#ED1C23"/>
<path d="M67.2975 17.8353C66.859 17.8353 66.4146 17.7477 66.0176 17.5723L60.0747 14.9609L60.448 14.009C60.7087 13.3452 61.4671 13.007 62.107 13.2888L66.9301 15.631C67.0427 15.6811 67.1671 15.7061 67.2975 15.7061C67.4278 15.7061 67.5582 15.6811 67.6648 15.631L72.4879 13.2888C73.1278 13.007 73.8862 13.3514 74.1469 14.009L74.5202 14.9609L68.5773 17.5723C68.1803 17.7477 67.7359 17.8353 67.2975 17.8353Z" fill="#ED1C23"/>
<path d="M67.2857 19.0129C66.5688 19.0129 65.917 19.4388 65.597 20.1151L60.9458 31.3374H63.9499L67.2028 22.0252C67.2028 22.0252 67.2324 21.9563 67.2916 21.9563C67.3509 21.9563 67.3805 22.0252 67.3805 22.0252L70.6334 31.3374H73.6375L68.9862 20.1151C68.6663 19.4388 68.0145 19.0129 67.2976 19.0129H67.2798H67.2857Z" fill="#657F86"/>
</svg>
