<svg width="76" height="80" viewBox="0 0 76 80" fill="none" xmlns="http://www.w3.org/2000/svg">
<path d="M40.5919 28.8921V25.584H36.0423V26.5291H39.6146V27.17H36.0423V28.1152H39.6146V28.8921H34.8999V29.8372H41.7475V28.8921H40.5919Z" fill="#221714"/>
<path d="M37.0593 30.2581H36.082V32.7116H40.7307V31.76H37.0593V30.2581Z" fill="#221714"/>
<path d="M46.3103 27.9212C46.3103 27.5845 46.2047 27.2738 46.033 27.0148H46.7329V26.0697H45.1151V25.3123H44.1378V26.0697H42.52V27.0148H43.22C43.0483 27.2803 42.9426 27.591 42.9426 27.9212C42.9426 28.8275 43.702 29.5655 44.6265 29.5655C45.5509 29.5655 46.3037 28.8275 46.3037 27.9212M43.9067 27.9212C43.9067 27.5327 44.2303 27.2155 44.6265 27.2155C45.0227 27.2155 45.3462 27.5327 45.3462 27.9212C45.3462 28.3096 45.0227 28.6268 44.6265 28.6268C44.2303 28.6268 43.9067 28.3096 43.9067 27.9212Z" fill="#221714"/>
<path d="M43.7876 31.0415H47.4524V32.8282H48.4297V30.0898H43.7876V31.0415Z" fill="#221714"/>
<path d="M48.4038 27.2284V25.4028H47.4199V29.5913H48.4038V28.0376H49.6386V27.2284H48.4038Z" fill="#221714"/>
<path d="M19.666 26.6588H21.8979V27.5198L19.5142 29.8439L20.2009 30.5106L22.8752 27.8953V25.7136H19.666V26.6588Z" fill="#221714"/>
<path d="M54.7824 29.6885H55.7597V25.9531H50.8799V26.9048H54.7824V29.6885Z" fill="#221714"/>
<path d="M54.155 30.5948V28.219H53.1777V30.5948H52.5702V28.219H51.5863V30.5948H50.0874V31.54H56.486V30.5948H54.155Z" fill="#221714"/>
<path d="M33.0046 25.4028H32.0273V29.3842H33.0046V27.8046H34.246V26.9889H33.0046V25.4028Z" fill="#221714"/>
<path d="M31.2416 29.6626C30.2577 29.6626 29.4653 30.4459 29.4653 31.4105C29.4653 32.3751 30.2577 33.1519 31.2416 33.1519C32.2255 33.1519 33.0179 32.3686 33.0179 31.4105C33.0179 30.4524 32.2255 29.6626 31.2416 29.6626ZM31.2416 32.2197C30.7794 32.2197 30.4096 31.8572 30.4096 31.4105C30.4096 30.9638 30.7794 30.5948 31.2416 30.5948C31.7038 30.5948 32.067 30.9638 32.067 31.4105C32.067 31.8572 31.6972 32.2197 31.2416 32.2197Z" fill="#221714"/>
<path d="M31.2749 28.5554L29.7232 27.293V26.5291H31.1098V25.584H27.3592V26.5291H28.7459V27.293L27.1875 28.5554L27.8016 29.287L29.2345 28.1282L30.6608 29.287L31.2749 28.5554Z" fill="#221714"/>
<path d="M25.0083 25.4028H24.0244V32.3427H25.0083V28.2836H26.2497V27.3385H25.0083V25.4028Z" fill="#221714"/>
<path d="M43.141 17.0195H42.5401C42.3288 16.2686 41.6289 15.7118 40.7903 15.7118C39.7932 15.7118 38.981 16.5146 38.981 17.4856C38.981 18.4567 39.7932 19.2594 40.7903 19.2594C41.6223 19.2594 42.3222 18.7091 42.5335 17.9647H43.141V22.2114H44.1183V15.2781H43.141V17.0195ZM40.7903 18.3272C40.3148 18.3272 39.9318 17.9517 39.9318 17.4856C39.9318 17.0195 40.3148 16.644 40.7903 16.644C41.2657 16.644 41.6553 17.0195 41.6553 17.4856C41.6553 17.9517 41.2657 18.3272 40.7903 18.3272Z" fill="#221714"/>
<path d="M45.6501 15.2844H44.6729V22.2178H45.6501V15.2844Z" fill="#221714"/>
<path d="M51.7252 17H50.2461V17.9516H51.7252V22.2113H52.6959V15.2844H51.7252V17Z" fill="#221714"/>
<path d="M29.928 15.2844H28.9507V22.2178H29.928V15.2844Z" fill="#221714"/>
<path d="M27.425 17H26.4478V17.9516H27.425V22.2113H28.3957V15.2844H27.425V17Z" fill="#221714"/>
<path d="M25.3118 15.4917H24.3345V17.7704L22.7563 19.3306L23.4365 19.9974L24.8298 18.6315L26.2231 19.9974L26.9032 19.3306L25.3118 17.7704V15.4917Z" fill="#221714"/>
<path d="M49.1299 15.4917H48.1527V17.7704L46.5679 19.3306L47.2546 19.9974L48.6413 18.6315L50.0412 19.9974L50.7213 19.3306L49.1299 17.7704V15.4917Z" fill="#221714"/>
<path d="M35.1706 19.5508C34.1801 19.5508 33.3745 20.3341 33.3745 21.3116C33.3745 22.2892 34.1801 23.066 35.1706 23.066C36.1611 23.066 36.9667 22.2762 36.9667 21.3116C36.9667 20.347 36.1611 19.5508 35.1706 19.5508ZM35.1706 22.1338C34.7018 22.1338 34.3254 21.7648 34.3254 21.3052C34.3254 20.8455 34.7018 20.4765 35.1706 20.4765C35.6394 20.4765 36.0158 20.8455 36.0158 21.3052C36.0158 21.7648 35.6394 22.1338 35.1706 22.1338Z" fill="#221714"/>
<path d="M36.947 15.2844H35.9697V19.2722H36.947V17.6797H38.195V16.8705H36.947V15.2844Z" fill="#221714"/>
<path d="M35.2236 18.5472L33.6256 16.9806V15.4204H32.6417V16.9806L31.0503 18.5472L31.7304 19.2205L33.1369 17.8351L34.5434 19.2205L35.2236 18.5472Z" fill="#221714"/>
<path d="M38.0035 0L33.5859 2.16222L57.8398 14.0221L59.7944 10.6622L38.0035 0Z" fill="#FDB913"/>
<path d="M38.0035 0L16.2061 10.6622L18.1606 14.0221L42.4145 2.16222L38.0035 0Z" fill="#F37321"/>
<path d="M40.3542 45.5555H35.646L35.613 45.5166C31.9944 41.1727 25.3515 40.8296 23.4035 40.8296H17.3813V36.9907H23.1526C30.2115 36.9907 34.4971 39.2695 36.8412 41.1986C39.5618 43.445 40.3476 45.5555 40.3476 45.5555" fill="#45B97C"/>
<path d="M35.646 45.5555H40.3541L40.3872 45.5166C44.0058 41.1727 50.6487 40.8296 52.5966 40.8296H58.6188V36.9907H52.8475C45.7886 36.9907 41.5031 39.2695 39.1589 41.1986C36.4384 43.445 35.6526 45.5555 35.6526 45.5555" fill="#0099D7"/>
<path d="M26.8511 76.7627C26.8511 77.5544 27.1602 78.2946 27.7141 78.8481C28.2745 79.4081 29.0151 79.717 29.8073 79.717H36.4026V77.1682H29.949C29.8073 77.1682 29.6721 77.1103 29.5755 77.0137C29.4789 76.9172 29.4209 76.782 29.4209 76.6404V74.4328H36.1579V72.0127H29.4209V69.5605H36.4026V67.0503H26.8511V76.7627Z" fill="#657F86"/>
<path d="M60.072 67.0503L56.8323 72.0771L53.7344 67.0503H50.5913L55.5377 74.4971V79.717H58.1205V74.5036L63.2601 67.0503H60.072Z" fill="#657F86"/>
<path d="M69.3982 66.7991C65.7528 66.7991 62.79 69.7598 62.79 73.3963C62.79 77.0328 65.7528 80 69.3982 80C73.0436 80 75.9999 77.0393 75.9999 73.3963C75.9999 69.7533 73.0372 66.7991 69.3982 66.7991ZM69.3982 77.4255C67.1761 77.4255 65.3728 75.6233 65.3728 73.4028C65.3728 71.1822 67.1761 69.38 69.3982 69.38C71.6202 69.38 73.4236 71.1822 73.4236 73.4028C73.4236 75.6233 71.6138 77.4255 69.3982 77.4255Z" fill="#657F86"/>
<path d="M5.00441 67.0503H0V76.737C0 78.404 1.32678 79.717 2.98847 79.717H5.00441C9.54508 79.717 11.342 76.4087 11.342 73.2742C11.342 70.4036 9.60305 67.0503 5.00441 67.0503ZM2.56339 69.509H5.00441C7.70949 69.509 8.72712 71.4463 8.77864 73.2614C8.81085 74.4392 8.44373 75.4819 7.74813 76.1963C7.08474 76.8786 6.15729 77.2261 5.00441 77.2261H3.09152C2.94983 77.2261 2.81458 77.1682 2.71797 77.0717C2.62136 76.9687 2.56339 76.84 2.56339 76.6984V69.509Z" fill="#657F86"/>
<path d="M44.9172 73.345C44.782 73.1906 44.8914 73.0554 44.9236 73.0168L50.4691 67.0503H47.1586L42.9592 71.7166C42.4182 72.3152 42.3667 73.0103 42.3667 73.2034V73.2871C42.3667 73.4866 42.4247 74.1946 42.9721 74.7739L47.6416 79.7106H51.0101L44.9172 73.3386V73.345Z" fill="#657F86"/>
<path d="M41.9416 67.0503H39.3589V79.717H41.9416V67.0503Z" fill="#657F86"/>
<path d="M20.314 60.5495C20.314 61.4634 19.5733 62.2101 18.6523 62.2101C17.7313 62.2101 16.9971 61.4699 16.9971 60.5495C16.9971 59.6291 17.7377 58.8889 18.6523 58.8889C19.5669 58.8889 20.314 59.6291 20.314 60.5495Z" fill="#ED1C23"/>
<path d="M18.6584 65.8337C18.1818 65.8337 17.6987 65.7436 17.2672 65.5634L10.8008 62.8795L11.2065 61.9011C11.4899 61.2189 12.3143 60.8713 13.0099 61.161L18.2526 63.5682C18.375 63.6196 18.5103 63.6454 18.652 63.6454C18.7937 63.6454 18.9354 63.6196 19.0513 63.5682L24.294 61.161C24.9896 60.8713 25.814 61.2253 26.0974 61.9011L26.5032 62.8795L20.0367 65.5634C19.6052 65.7436 19.1221 65.8337 18.6455 65.8337H18.6584Z" fill="#ED1C23"/>
<path d="M18.6459 67.0503C17.8666 67.0503 17.1581 67.488 16.8103 68.1831L11.7544 79.717H15.0198L18.5557 70.1462C18.5557 70.1462 18.588 70.0754 18.6524 70.0754C18.7168 70.0754 18.749 70.1462 18.749 70.1462L22.2849 79.717H25.5503L20.4944 68.1831C20.1466 67.488 19.4381 67.0503 18.6588 67.0503H18.6395H18.6459Z" fill="#657F86"/>
</svg>
