<svg width="76" height="80" viewBox="0 0 76 80" fill="none" xmlns="http://www.w3.org/2000/svg">
<path d="M40.0384 28.8867V25.585H35.4846V26.534H39.0568V27.1757H35.4846V28.1247H39.0568V28.8867H34.3394V29.8357H41.1837V28.8867H40.0384Z" fill="#8A98A3"/>
<path d="M36.507 30.2634H35.5254V32.7096H40.1746V31.7606H36.507V30.2634Z" fill="#8A98A3"/>
<path d="M45.7513 27.9242C45.7513 27.59 45.6422 27.2825 45.4786 27.0152H46.1876V26.0661H44.5788V25.3042H43.5971V26.0661H41.9883V27.0152H42.6836C42.5064 27.2825 42.4109 27.59 42.4109 27.9242C42.4109 28.8331 43.1744 29.5683 44.1016 29.5683C45.0287 29.5683 45.7786 28.8331 45.7786 27.9242M43.379 27.9242C43.379 27.5365 43.7062 27.2157 44.1016 27.2157C44.497 27.2157 44.8242 27.5365 44.8242 27.9242C44.8242 28.3118 44.497 28.6326 44.1016 28.6326C43.7062 28.6326 43.379 28.3118 43.379 27.9242Z" fill="#8A98A3"/>
<path d="M43.229 31.0387H46.8966V32.8299H47.8782V30.0896H43.229V31.0387Z" fill="#8A98A3"/>
<path d="M47.8508 27.229V25.3977H46.8691V29.595H47.8508V28.0444H49.0779V27.229H47.8508Z" fill="#8A98A3"/>
<path d="M19.1099 26.6542H21.3459V27.5231L18.96 29.849L19.6417 30.5173L22.3276 27.8974V25.7185H19.1099V26.6542Z" fill="#8A98A3"/>
<path d="M54.2313 29.6887H55.1994V25.9592H50.3184V26.9083H54.2313V29.6887Z" fill="#8A98A3"/>
<path d="M53.6044 30.5976V28.2183H52.6228V30.5976H52.0092V28.2183H51.0276V30.5976H49.5278V31.5467H55.9359V30.5976H53.6044Z" fill="#8A98A3"/>
<path d="M32.4441 25.3977H31.4761V29.3811H32.4441V27.8038H33.6848V26.9884H32.4441V25.3977Z" fill="#8A98A3"/>
<path d="M30.6855 29.6619C29.7038 29.6619 28.8994 30.4372 28.8994 31.413C28.8994 32.3888 29.6902 33.1507 30.6855 33.1507C31.6808 33.1507 32.4579 32.3754 32.4579 31.413C32.4579 30.4505 31.6671 29.6619 30.6855 29.6619ZM30.6855 32.215C30.2219 32.215 29.8538 31.8541 29.8538 31.3996C29.8538 30.9451 30.2219 30.5842 30.6855 30.5842C31.149 30.5842 31.5172 30.9451 31.5172 31.3996C31.5172 31.8541 31.149 32.215 30.6855 32.215Z" fill="#8A98A3"/>
<path d="M30.7265 28.5659L29.1585 27.296V26.534H30.5629V25.585H26.7998V26.534H28.1905V27.296L26.6362 28.5659L27.2498 29.2877L28.6813 28.1247L30.1129 29.2877L30.7265 28.5659Z" fill="#8A98A3"/>
<path d="M24.4548 25.4111H23.4731V32.3487H24.4548V28.2851H25.6955V27.336H24.4548V25.4111Z" fill="#8A98A3"/>
<path d="M42.5881 17.0298H41.9882C41.77 16.2812 41.0747 15.7198 40.243 15.7198C39.2477 15.7198 38.4297 16.5218 38.4297 17.4976C38.4297 18.4735 39.2477 19.2755 40.243 19.2755C41.0747 19.2755 41.77 18.7274 41.9882 17.9789H42.6017V22.2296H43.5834V15.3054H42.6017V17.0432L42.5881 17.0298ZM40.2294 18.3398C39.7522 18.3398 39.3704 17.9655 39.3704 17.4976C39.3704 17.0298 39.7522 16.6555 40.2294 16.6555C40.7066 16.6555 41.0883 17.0298 41.0883 17.4976C41.0883 17.9655 40.7066 18.3398 40.2294 18.3398Z" fill="#8A98A3"/>
<path d="M45.0833 15.2788H44.1152V22.203H45.0833V15.2788Z" fill="#8A98A3"/>
<path d="M51.1639 17.0032H49.6914V17.9523H51.1639V22.2164H52.1455V15.2788H51.1639V17.0032Z" fill="#8A98A3"/>
<path d="M29.3767 15.2788H28.395V22.203H29.3767V15.2788Z" fill="#8A98A3"/>
<path d="M26.8679 17.0032H25.8999V17.9523H26.8679V22.2164H27.8359V15.2788H26.8679V17.0032Z" fill="#8A98A3"/>
<path d="M24.7546 15.4927H23.773V17.7785L22.1914 19.3291L22.8731 19.9974L24.2638 18.634L25.6681 19.9974L26.3498 19.3291L24.7546 17.7785V15.4927Z" fill="#8A98A3"/>
<path d="M48.5735 15.4927H47.5918V17.7785L46.0103 19.3291L46.692 19.9974L48.0826 18.634L49.487 19.9974L50.1687 19.3291L48.5735 17.7785V15.4927Z" fill="#8A98A3"/>
<path d="M34.6122 19.5562C33.6169 19.5562 32.8125 20.3448 32.8125 21.3206C32.8125 22.2964 33.6169 23.0717 34.6122 23.0717C35.6075 23.0717 36.4119 22.2831 36.4119 21.3206C36.4119 20.3582 35.6075 19.5562 34.6122 19.5562ZM34.6122 22.136C34.1486 22.136 33.7669 21.7617 33.7669 21.3073C33.7669 20.8528 34.1486 20.4785 34.6122 20.4785C35.0758 20.4785 35.4575 20.8528 35.4575 21.3073C35.4575 21.7617 35.0758 22.136 34.6122 22.136Z" fill="#8A98A3"/>
<path d="M36.3982 15.2788H35.4165V19.2756H36.3982V17.6849H37.6389V16.8695H36.3982V15.2788Z" fill="#8A98A3"/>
<path d="M34.6667 18.5537L33.0715 16.9764V15.4258H32.0898V16.9764L30.4946 18.5537L31.1763 19.2221L32.5806 17.8319L33.985 19.2221L34.6667 18.5537Z" fill="#8A98A3"/>
<path d="M35.0894 45.5557H39.7931L39.8204 45.5156C43.4334 41.1712 50.0732 40.8237 52.0229 40.8237H58.0492V36.9873H52.282C45.2195 36.9873 40.9384 39.2597 38.5933 41.198C35.8665 43.4437 35.0894 45.5557 35.0894 45.5557Z" fill="#8A98A3"/>
<path d="M36.2889 41.198C33.9438 39.2731 29.6627 36.9873 22.6002 36.9873H16.833V40.8237H22.8593C24.6181 40.8237 30.249 41.1044 33.9711 44.3927C34.3392 43.6843 35.0754 42.5347 36.357 41.2381C36.3298 41.2247 36.3161 41.198 36.2889 41.1846" fill="#8A98A3"/>
<path d="M37.4479 0L15.647 10.6671L17.6103 14.0222L41.8654 2.16549L37.4479 0Z" fill="#8A98A3"/>
<path d="M43.5288 2.98096L39.1113 5.13308L57.2856 14.0223L59.2353 10.6671L43.5288 2.98096Z" fill="#8A98A3"/>
<path d="M26.8511 76.7627C26.8511 77.5544 27.1602 78.2946 27.7141 78.8481C28.2745 79.408 29.0151 79.717 29.8073 79.717H36.4026V77.1682H29.949C29.8073 77.1682 29.6721 77.1103 29.5755 77.0137C29.4789 76.9172 29.4209 76.782 29.4209 76.6404V74.4328H36.1579V72.0127H29.4209V69.5605H36.4026V67.0503H26.8511V76.7627Z" fill="#8A98A3"/>
<path d="M60.072 67.0503L56.8323 72.0771L53.7344 67.0503H50.5913L55.5377 74.4971V79.717H58.1205V74.5036L63.2601 67.0503H60.072Z" fill="#8A98A3"/>
<path d="M69.3982 66.7991C65.7528 66.7991 62.79 69.7598 62.79 73.3963C62.79 77.0328 65.7528 80 69.3982 80C73.0436 80 75.9999 77.0393 75.9999 73.3963C75.9999 69.7533 73.0372 66.7991 69.3982 66.7991ZM69.3982 77.4255C67.1761 77.4255 65.3728 75.6233 65.3728 73.4027C65.3728 71.1822 67.1761 69.38 69.3982 69.38C71.6202 69.38 73.4236 71.1822 73.4236 73.4027C73.4236 75.6233 71.6138 77.4255 69.3982 77.4255Z" fill="#8A98A3"/>
<path d="M5.00441 67.0503H0V76.737C0 78.404 1.32678 79.717 2.98847 79.717H5.00441C9.54508 79.717 11.342 76.4087 11.342 73.2742C11.342 70.4036 9.60305 67.0503 5.00441 67.0503ZM2.56339 69.509H5.00441C7.70949 69.509 8.72712 71.4463 8.77864 73.2614C8.81084 74.4392 8.44373 75.4819 7.74813 76.1963C7.08474 76.8786 6.15729 77.2261 5.00441 77.2261H3.09152C2.94983 77.2261 2.81458 77.1682 2.71797 77.0717C2.62135 76.9687 2.56339 76.84 2.56339 76.6984V69.509Z" fill="#8A98A3"/>
<path d="M44.9172 73.345C44.782 73.1906 44.8914 73.0554 44.9236 73.0168L50.4691 67.0503H47.1586L42.9592 71.7166C42.4182 72.3152 42.3667 73.0103 42.3667 73.2034V73.2871C42.3667 73.4866 42.4247 74.1946 42.9721 74.7739L47.6416 79.7106H51.0101L44.9172 73.3386V73.345Z" fill="#8A98A3"/>
<path d="M41.9416 67.0503H39.3589V79.717H41.9416V67.0503Z" fill="#8A98A3"/>
<path d="M20.314 60.5495C20.314 61.4634 19.5733 62.2101 18.6523 62.2101C17.7313 62.2101 16.9971 61.4699 16.9971 60.5495C16.9971 59.6291 17.7377 58.8889 18.6523 58.8889C19.5669 58.8889 20.314 59.6291 20.314 60.5495Z" fill="#8A98A3"/>
<path d="M18.6584 65.8337C18.1818 65.8337 17.6987 65.7436 17.2672 65.5634L10.8008 62.8795L11.2065 61.9011C11.4899 61.2189 12.3143 60.8713 13.0099 61.161L18.2526 63.5682C18.375 63.6196 18.5103 63.6454 18.652 63.6454C18.7937 63.6454 18.9354 63.6196 19.0513 63.5682L24.294 61.161C24.9896 60.8713 25.814 61.2253 26.0974 61.9011L26.5032 62.8795L20.0367 65.5634C19.6052 65.7436 19.1221 65.8337 18.6455 65.8337H18.6584Z" fill="#8A98A3"/>
<path d="M18.6459 67.0503C17.8666 67.0503 17.1581 67.488 16.8103 68.1831L11.7544 79.717H15.0198L18.5557 70.1462C18.5557 70.1462 18.588 70.0754 18.6524 70.0754C18.7168 70.0754 18.749 70.1462 18.749 70.1462L22.2849 79.717H25.5503L20.4944 68.1831C20.1466 67.488 19.4381 67.0503 18.6588 67.0503H18.6395H18.6459Z" fill="#8A98A3"/>
</svg>
