<svg width="120" height="44" viewBox="0 0 120 44" fill="none" xmlns="http://www.w3.org/2000/svg">
<path d="M75.1772 28.4679C75.1772 29.2381 75.4592 29.9583 75.9643 30.4969C76.4753 31.0417 77.1508 31.3423 77.8733 31.3423H83.888V28.8624H78.0025C77.8733 28.8624 77.75 28.806 77.6618 28.7121C77.5737 28.6182 77.5209 28.4866 77.5209 28.3489V26.2009H83.6648V23.8462H77.5209V21.4602H83.888V19.0178H75.1772V28.4679Z" fill="#8A98A3"/>
<path d="M105.474 19.0178L102.52 23.9088L99.6945 19.0178H96.8281L101.339 26.2635V31.3423H103.695V26.2697L108.382 19.0178H105.474Z" fill="#8A98A3"/>
<path d="M113.979 18.7737C110.655 18.7737 107.953 21.6544 107.953 25.199C107.953 28.7435 110.655 31.6242 113.979 31.6242C117.304 31.6242 120 28.7435 120 25.199C120 21.6544 117.298 18.7737 113.979 18.7737ZM113.979 29.113C111.953 29.113 110.308 27.3595 110.308 25.199C110.308 23.0384 111.953 21.2849 113.979 21.2849C116.006 21.2849 117.65 23.0384 117.65 25.199C117.65 27.3595 116 29.113 113.979 29.113Z" fill="#8A98A3"/>
<path d="M55.2534 19.0178H50.6895V28.4428C50.6895 30.0648 51.9053 31.3423 53.4149 31.3423H55.2534C59.3944 31.3423 61.0331 28.1234 61.0331 25.0736C61.0331 22.2806 59.4472 19.0178 55.2534 19.0178ZM53.0272 21.4101H55.2534C57.7203 21.4101 58.6484 23.2951 58.6954 25.0611C58.7248 26.2071 58.39 27.2216 57.7556 27.9168C57.1506 28.5806 56.3048 28.9188 55.2534 28.9188H53.5089C53.3796 28.9188 53.2563 28.8687 53.1682 28.7685C53.0801 28.6683 53.0272 28.543 53.0272 28.4052V21.4101Z" fill="#8A98A3"/>
<path d="M91.6532 25.1425C91.5298 24.9922 91.6297 24.8607 91.659 24.8231L96.7163 19.0178H93.6972L89.8675 23.5581C89.3741 24.1405 89.3271 24.8169 89.3271 25.0047V25.0861C89.3271 25.2803 89.38 25.9691 89.8793 26.5328L94.1378 31.3361H97.2097L91.6532 25.1362V25.1425Z" fill="#8A98A3"/>
<path d="M88.9389 19.0178H86.584V31.3423H88.9389V19.0178Z" fill="#8A98A3"/>
<path d="M69.2148 12.6929C69.2148 13.5821 68.5395 14.3086 67.6997 14.3086C66.8599 14.3086 66.1904 13.5884 66.1904 12.6929C66.1904 11.7973 66.8658 11.0771 67.6997 11.0771C68.5336 11.0771 69.2148 11.7973 69.2148 12.6929Z" fill="#8A98A3"/>
<path d="M67.706 17.8344C67.2714 17.8344 66.8308 17.7467 66.4373 17.5713L60.5459 14.9599L60.9159 14.008C61.1744 13.3442 61.9262 13.006 62.5606 13.2878L67.3418 15.63C67.4534 15.6801 67.5768 15.7051 67.706 15.7051C67.8352 15.7051 67.9645 15.6801 68.0702 15.63L72.8514 13.2878C73.4858 13.006 74.2376 13.3505 74.4961 14.008L74.8661 14.9599L68.9747 17.5713C68.5812 17.7467 68.1407 17.8344 67.706 17.8344Z" fill="#8A98A3"/>
<path d="M67.6941 19.0117C66.9834 19.0117 66.3373 19.4376 66.0201 20.1139L61.4092 31.3362H64.3872L67.6119 22.024C67.6119 22.024 67.6412 21.9551 67.7 21.9551C67.7587 21.9551 67.7881 22.024 67.7881 22.024L71.0128 31.3362H73.9908L69.3799 20.1139C69.0627 19.4376 68.4166 19.0117 67.7059 19.0117H67.6882H67.6941Z" fill="#8A98A3"/>
<path d="M21.9976 27.9001V24.7112H17.8908V25.6278H21.1123V26.2476H17.8908V27.1642H21.1123V27.9001H16.8579V28.8168H23.0305V27.9001H21.9976Z" fill="#8A98A3"/>
<path d="M18.813 29.23H17.9277V31.5927H22.1207V30.676H18.813V29.23Z" fill="#8A98A3"/>
<path d="M27.1496 26.9705C27.1496 26.6477 27.0512 26.3507 26.9036 26.0925H27.543V25.1759H26.0921V24.4399H25.2068V25.1759H23.7559V26.0925H24.383C24.2231 26.3507 24.137 26.6477 24.137 26.9705C24.137 27.8484 24.8256 28.5585 25.6617 28.5585C26.4979 28.5585 27.1741 27.8484 27.1741 26.9705M25.0101 26.9705C25.0101 26.596 25.3052 26.2862 25.6617 26.2862C26.0183 26.2862 26.3134 26.596 26.3134 26.9705C26.3134 27.3449 26.0183 27.6547 25.6617 27.6547C25.3052 27.6547 25.0101 27.3449 25.0101 26.9705Z" fill="#8A98A3"/>
<path d="M24.875 29.9789H28.1826V31.709H29.0679V29.0623H24.875V29.9789Z" fill="#8A98A3"/>
<path d="M29.043 26.2993V24.5305H28.1577V28.5845H29.043V27.0869H30.1497V26.2993H29.043Z" fill="#8A98A3"/>
<path d="M3.12305 25.7441H5.1396V26.5833L2.98779 28.8298L3.60259 29.4753L6.02491 26.9448V24.8403H3.12305V25.7441Z" fill="#8A98A3"/>
<path d="M34.7975 28.6749H35.6705V25.0728H31.2686V25.9894H34.7975V28.6749Z" fill="#8A98A3"/>
<path d="M34.2322 29.5528V27.2546H33.3469V29.5528H32.7935V27.2546H31.9082V29.5528H30.5557V30.4694H36.3348V29.5528H34.2322Z" fill="#8A98A3"/>
<path d="M15.1489 24.5305H14.2759V28.3779H15.1489V26.8545H16.2678V26.0669H15.1489V24.5305Z" fill="#8A98A3"/>
<path d="M13.5624 28.6489C12.6771 28.6489 11.9517 29.3978 11.9517 30.3402C11.9517 31.2827 12.6648 32.0186 13.5624 32.0186C14.46 32.0186 15.1609 31.2698 15.1609 30.3402C15.1609 29.4107 14.4478 28.6489 13.5624 28.6489ZM13.5624 31.1149C13.1444 31.1149 12.8124 30.7663 12.8124 30.3273C12.8124 29.8884 13.1444 29.5398 13.5624 29.5398C13.9805 29.5398 14.3125 29.8884 14.3125 30.3273C14.3125 30.7663 13.9805 31.1149 13.5624 31.1149Z" fill="#8A98A3"/>
<path d="M13.5994 27.5903L12.1854 26.3638V25.6278H13.4519V24.7112H10.0582V25.6278H11.3124V26.3638L9.91064 27.5903L10.464 28.2875L11.755 27.1642L13.0461 28.2875L13.5994 27.5903Z" fill="#8A98A3"/>
<path d="M7.94342 24.5435H7.05811V31.2442H7.94342V27.3193H9.06235V26.4026H7.94342V24.5435Z" fill="#8A98A3"/>
<path d="M24.2967 16.4482H23.7556C23.5589 15.7252 22.9318 15.1829 22.1818 15.1829C21.2841 15.1829 20.5464 15.9576 20.5464 16.9001C20.5464 17.8426 21.2841 18.6172 22.1818 18.6172C22.9318 18.6172 23.5589 18.0879 23.7556 17.3649H24.309V21.4705H25.1943V14.7827H24.309V16.4611L24.2967 16.4482ZM22.1695 17.7135C21.7391 17.7135 21.3948 17.352 21.3948 16.9001C21.3948 16.4482 21.7391 16.0867 22.1695 16.0867C22.5998 16.0867 22.9441 16.4482 22.9441 16.9001C22.9441 17.352 22.5998 17.7135 22.1695 17.7135Z" fill="#8A98A3"/>
<path d="M26.5468 14.7571H25.6738V21.4449H26.5468V14.7571Z" fill="#8A98A3"/>
<path d="M32.0311 16.4226H30.7031V17.3392H32.0311V21.4578H32.9164V14.7571H32.0311V16.4226Z" fill="#8A98A3"/>
<path d="M12.3819 14.7571H11.4966V21.4449H12.3819V14.7571Z" fill="#8A98A3"/>
<path d="M10.1196 16.4226H9.24658V17.3392H10.1196V21.4578H10.9926V14.7571H10.1196V16.4226Z" fill="#8A98A3"/>
<path d="M8.2135 14.9636H7.32819V17.1714L5.90186 18.669L6.51666 19.3146L7.77085 17.9977L9.03734 19.3146L9.65214 18.669L8.2135 17.1714V14.9636Z" fill="#8A98A3"/>
<path d="M29.6949 14.9636H28.8096V17.1714L27.3833 18.669L27.9981 19.3146L29.2523 17.9977L30.5188 19.3146L31.1336 18.669L29.6949 17.1714V14.9636Z" fill="#8A98A3"/>
<path d="M17.1035 18.8887C16.2059 18.8887 15.4805 19.6504 15.4805 20.5929C15.4805 21.5354 16.2059 22.2842 17.1035 22.2842C18.0012 22.2842 18.7266 21.5225 18.7266 20.5929C18.7266 19.6633 18.0012 18.8887 17.1035 18.8887ZM17.1035 21.3805C16.6855 21.3805 16.3412 21.019 16.3412 20.58C16.3412 20.141 16.6855 19.7795 17.1035 19.7795C17.5216 19.7795 17.8659 20.141 17.8659 20.58C17.8659 21.019 17.5216 21.3805 17.1035 21.3805Z" fill="#8A98A3"/>
<path d="M18.7144 14.7571H17.8291V18.6174H18.7144V17.081H19.8334V16.2935H18.7144V14.7571Z" fill="#8A98A3"/>
<path d="M17.1527 17.9201L15.7141 16.3966V14.8989H14.8288V16.3966L13.3901 17.9201L14.0049 18.5656L15.2714 17.2229L16.5379 18.5656L17.1527 17.9201Z" fill="#8A98A3"/>
<path d="M17.5342 43.9999H21.7763L21.8009 43.9612C25.0593 39.7652 31.0475 39.4295 32.8058 39.4295H38.2407V35.7241H33.0395C26.6701 35.7241 22.8092 37.919 20.6943 39.791C18.2351 41.96 17.5342 43.9999 17.5342 43.9999Z" fill="#8A98A3"/>
<path d="M18.6162 39.791C16.5013 37.9319 12.6404 35.7241 6.27104 35.7241H1.06982V39.4295H6.50466C8.09085 39.4295 13.1691 39.7006 16.5259 42.8767C16.8579 42.1924 17.5219 41.0821 18.6777 39.8298C18.6531 39.8168 18.6408 39.791 18.6162 39.7781" fill="#8A98A3"/>
<path d="M19.6613 0L0 10.3028L1.77062 13.5434L23.6452 2.09155L19.6613 0Z" fill="#8A98A3"/>
<path d="M25.1455 2.87915L21.1616 4.95779L37.5522 13.5435L39.3105 10.3029L25.1455 2.87915Z" fill="#8A98A3"/>
</svg>
