<svg width="156" height="34" viewBox="0 0 156 34" fill="none" xmlns="http://www.w3.org/2000/svg">
<path d="M41.9834 28.0844C41.9834 29.284 42.4553 30.4057 43.3007 31.2444C44.1559 32.0929 45.2864 32.5611 46.4956 32.5611H56.562V28.6989H46.7119C46.4956 28.6989 46.2892 28.6111 46.1417 28.4648C45.9942 28.3185 45.9058 28.1137 45.9058 27.8991V24.5538H56.1885V20.8866H45.9058V17.1707H56.562V13.3669H41.9834V28.0844Z" fill="#8A98A3"/>
<path d="M92.6893 13.3669L87.7445 20.9841L83.016 13.3669H78.2188L85.7686 24.6513V32.5611H89.7106V24.6611L97.5554 13.3669H92.6893Z" fill="#8A98A3"/>
<path d="M106.924 12.9866C101.36 12.9866 96.8376 17.473 96.8376 22.9933C96.8376 28.5136 101.36 33 106.924 33C112.488 33 117 28.5136 117 22.9933C117 17.473 112.478 12.9866 106.924 12.9866ZM106.924 29.089C103.532 29.089 100.78 26.3581 100.78 22.9933C100.78 19.6285 103.532 16.8976 106.924 16.8976C110.315 16.8976 113.068 19.6285 113.068 22.9933C113.068 26.3581 110.305 29.089 106.924 29.089Z" fill="#8A98A3"/>
<path d="M8.63831 13.3669H1V28.0454C1 30.5715 3.03492 32.5611 5.56136 32.5611H8.63831C15.5688 32.5611 18.3115 27.548 18.3115 22.7982C18.3115 18.4483 15.6573 13.3669 8.63831 13.3669ZM4.91255 17.0926H8.63831C12.7671 17.0926 14.3203 20.0283 14.399 22.7787C14.4481 24.5635 13.8878 26.1435 12.8261 27.2261C11.8136 28.26 10.398 28.7866 8.63831 28.7866H5.71865C5.50238 28.7866 5.29593 28.7086 5.14848 28.5526C5.00102 28.3965 4.91255 28.2014 4.91255 27.9869V17.0926Z" fill="#8A98A3"/>
<path d="M69.5579 22.9055C69.3515 22.6714 69.5186 22.4666 69.5678 22.4081L78.0318 13.3669H72.9789L66.5694 20.438C65.7437 21.345 65.665 22.3983 65.665 22.6909V22.8177C65.665 23.1201 65.7535 24.1929 66.5891 25.0707L73.7162 32.5513H78.8576L69.5579 22.8957V22.9055Z" fill="#8A98A3"/>
<path d="M65.0163 13.3669H61.0742V32.5611H65.0163V13.3669Z" fill="#8A98A3"/>
<path d="M32.0053 3.51631C32.0053 4.90125 30.8748 6.03261 29.4691 6.03261C28.0633 6.03261 26.9426 4.911 26.9426 3.51631C26.9426 2.12161 28.0731 1 29.4691 1C30.865 1 32.0053 2.12161 32.0053 3.51631Z" fill="#8A98A3"/>
<path d="M29.479 11.5236C28.7515 11.5236 28.0142 11.3871 27.3556 11.114L17.4956 7.04693L18.1149 5.56446C18.5475 4.53063 19.8058 4.00396 20.8675 4.44285L28.8695 8.09051C29.0563 8.16854 29.2627 8.20755 29.479 8.20755C29.6953 8.20755 29.9115 8.16854 30.0885 8.09051L38.0905 4.44285C39.1522 4.00396 40.4105 4.54038 40.8431 5.56446L41.4624 7.04693L31.6024 11.114C30.9437 11.3871 30.2064 11.5236 29.479 11.5236Z" fill="#8A98A3"/>
<path d="M29.4593 13.3572C28.2698 13.3572 27.1885 14.0204 26.6576 15.0737L18.9407 32.5513H23.9247L29.3217 18.0484C29.3217 18.0484 29.3709 17.9411 29.4692 17.9411C29.5675 17.9411 29.6166 18.0484 29.6166 18.0484L35.0136 32.5513H39.9976L32.2807 15.0737C31.7498 14.0204 30.6685 13.3572 29.479 13.3572H29.4495H29.4593Z" fill="#8A98A3"/>
<path d="M147.798 23.8684H149.98V29.7937H155V31.64H141.073V29.7937H143.774V23.8684H145.946V29.7937H147.798V23.8684Z" fill="#8A98A3"/>
<path d="M151.823 27.6469H154.1V18.6472H142.189V20.4935H151.823V27.6469Z" fill="#8A98A3"/>
<path d="M136.936 18.4668V22.8893H135.421V18.4668H133.231V32.533H135.421V24.8387H136.936V32.533H139.117V18.4668H136.936Z" fill="#8A98A3"/>
<path d="M131.716 27.7325H127.778C127.501 27.7325 127.285 27.5093 127.285 27.2431V20.5792H131.725V18.7329H125.008V27.7927C125.008 28.7802 125.822 29.5874 126.817 29.5874H131.734V27.7411L131.716 27.7325Z" fill="#8A98A3"/>
</svg>
